<svg width="20" height="20" viewBox="0 0 20 20" fill="none" xmlns="http://www.w3.org/2000/svg">
<g clip-path="url(#clip0_277_17)">
<path d="M13.395 14.05C12.795 14.5633 11.5975 14.9125 10.2184 14.9125C8.52505 14.9125 7.10588 14.3858 6.72922 13.6767C6.59505 14.0833 6.56422 14.5483 6.56422 14.845C6.56422 14.845 6.47588 16.3033 7.49005 17.3183C7.49005 16.7917 7.91755 16.3642 8.44422 16.3642C9.34672 16.3642 9.34588 17.1517 9.34505 17.7908V17.8483C9.34505 18.8183 9.93755 19.6492 10.7809 20C10.6511 19.7328 10.5838 19.4396 10.5842 19.1425C10.5842 18.2175 11.1275 17.8733 11.7592 17.4733C12.2609 17.1542 12.8192 16.8008 13.2034 16.09C13.4105 15.7078 13.5188 15.2798 13.5184 14.845C13.5185 14.5752 13.4769 14.3071 13.395 14.05ZM12.9592 0.5C13.1225 0.703333 13.2059 0.976667 13.3725 1.52417L17.0126 13.48C15.6453 12.7705 14.1779 12.2737 12.6609 12.0067L10.2917 4C10.2728 3.93614 10.2336 3.88014 10.1802 3.84037C10.1268 3.8006 10.0619 3.77921 9.99526 3.7794C9.92864 3.77959 9.86388 3.80134 9.81067 3.84141C9.75745 3.88148 9.71864 3.9377 9.70005 4.00167L7.35838 12.0042C5.83462 12.27 4.36059 12.7678 2.98755 13.48L6.64505 1.5225C6.81172 0.975833 6.89505 0.7025 7.05922 0.5C7.20343 0.321194 7.39107 0.182332 7.60422 0.0966667C7.84588 0 8.13088 0 8.70255 0H11.315C11.8867 0 12.1734 0 12.415 0.0975C12.6275 0.183209 12.8153 0.321754 12.9592 0.5Z" fill="#153131"/>
</g>
<defs>
<clipPath id="clip0_277_17">
<rect width="20" height="20" fill="white"/>
</clipPath>
</defs>
</svg>
