<svg width="20" height="20" viewBox="0 0 20 20" fill="none" xmlns="http://www.w3.org/2000/svg">
<g clip-path="url(#clip0_143_22)">
<path d="M16.667 0H3.33386C2.45072 0.0028018 1.60455 0.354869 0.980077 0.979345C0.355601 1.60382 0.00353422 2.44999 0.000732422 3.33312V16.6662C0.000732422 18.4987 1.50136 19.9994 3.33386 19.9994H16.667C18.4995 19.9994 20.0001 18.4987 20.0001 16.6662V3.33312C20.0001 1.50063 18.4995 0 16.667 0ZM14.8439 14.0462C14.6774 14.4477 14.4134 14.8013 14.0757 15.075C13.7239 15.3581 13.2814 15.5925 12.7345 15.7587C12.1907 15.9281 11.5432 16.0125 10.7914 16.0125H5.43323V4.34562H11.1007C12.1489 4.34562 12.9889 4.58 13.617 5.06187C14.252 5.54375 14.5645 6.26625 14.5645 7.23625C14.5645 7.82562 14.4214 8.32687 14.1345 8.74312C13.8476 9.15937 13.4345 9.48187 12.9007 9.70687V9.74625C13.6139 9.89625 14.1639 10.2344 14.5251 10.7587C14.8864 11.2831 15.0751 11.9469 15.0751 12.7475C15.0756 13.184 14.9904 13.6163 14.8245 14.02L14.8439 14.0425V14.0462ZM12.5295 11.1719C12.1907 10.8594 11.7089 10.7062 11.0907 10.7062H7.48698V14.3456H11.1001C11.7151 14.3456 12.2001 14.1862 12.542 13.8637C12.8839 13.5412 13.0564 13.0825 13.0564 12.4962C13.0501 11.92 12.8839 11.4744 12.542 11.1712H12.5257L12.5295 11.1719ZM12.0314 8.81812C12.3601 8.53812 12.5226 8.1375 12.5226 7.61375C12.5226 7.0275 12.3764 6.61125 12.0801 6.37375C11.787 6.13625 11.3639 6.0125 10.8076 6.0125H7.47448V9.23187H10.8076C11.2926 9.23187 11.7095 9.08875 12.0282 8.81875L12.0314 8.81812Z" fill="#153131"/>
</g>
<defs>
<clipPath id="clip0_143_22">
<rect width="20" height="20" fill="white"/>
</clipPath>
</defs>
</svg>
