<svg width="20" height="20" viewBox="0 0 20 20" fill="none" xmlns="http://www.w3.org/2000/svg">
<path d="M20 15.682C19.2726 15.8733 18.8227 15.6903 18.4191 15.0636C17.513 13.6602 16.5127 12.3212 15.5476 10.9574C15.4231 10.7809 15.2939 10.6078 15.1328 10.3884C13.9906 11.9815 12.85 13.4986 11.7795 15.0768C11.3967 15.6408 10.9947 15.8865 10.28 15.687L14.5745 9.7288L10.5767 4.34781C11.2643 4.20928 11.7397 4.28019 12.1608 4.91674C13.0909 6.32177 14.1166 7.65919 15.1392 9.07411C16.1681 7.66413 17.1811 6.32507 18.1383 4.93324C18.5228 4.36925 18.936 4.15486 19.6267 4.36265C19.1035 5.08 18.5914 5.78582 18.0761 6.48668C17.3806 7.43161 16.6978 8.38809 15.9767 9.31323C15.7199 9.64305 15.7613 9.85743 15.9911 10.1691C17.3247 11.9815 18.6424 13.812 20 15.682ZM0.00478585 9.62985C0.119646 9.03453 0.196219 8.42766 0.355747 7.84389C1.31291 4.30988 5.2373 2.84054 7.93332 5.03053C9.51264 6.31518 9.90508 8.12588 9.82691 10.1675H0.925261C0.791258 13.8301 3.34211 16.0415 6.59328 14.9135C7.73391 14.5178 8.40552 13.5943 8.74212 12.4399C8.91282 11.8611 9.19518 11.7704 9.72163 11.9353C9.45202 13.3799 8.84103 14.587 7.56481 15.3423C5.65048 16.4736 2.91776 16.1075 1.48042 14.5359C0.63173 13.6124 0.271197 12.463 0.111669 11.2212C0.0877403 11.0233 0.0382867 10.8287 0 10.6325C0.00319056 10.2983 0.00478585 9.96407 0.00478585 9.62985ZM0.941214 9.38414H8.9862C8.93356 6.73569 7.33828 4.85408 5.15753 4.83759C2.76462 4.8178 1.04491 6.65489 0.941214 9.38414Z" fill="#153131"/>
</svg>
