<svg width="20" height="20" viewBox="0 0 20 20" fill="none" xmlns="http://www.w3.org/2000/svg">
<g clip-path="url(#clip0_277_7)">
<path d="M6.25384 0H9.49462V6.48164H6.25387C1.98005 6.31457 1.93688 0.175469 6.25384 0ZM6.25384 13.2405H9.49462V6.75887H6.25387C1.93692 6.93434 1.98005 13.0734 6.25384 13.2405ZM13.0127 0H9.77184V6.48164H13.0127C17.344 6.24984 17.29 0.132305 13.0127 0ZM9.49462 16.7586V13.5177H6.25387C3.60926 13.5177 1.93692 16.6184 3.77618 18.8454C5.52977 21.0528 9.49466 19.9523 9.49466 16.7586H9.49462ZM16.2601 9.99969C16.2601 7.50906 13.5454 5.94402 11.3853 7.18934C9.22528 8.43465 9.22524 11.5648 11.3853 12.8101C13.5454 14.0554 16.2601 12.4903 16.2601 9.99969Z" fill="#153131"/>
</g>
<defs>
<clipPath id="clip0_277_7">
<rect width="20" height="20" fill="white"/>
</clipPath>
</defs>
</svg>
