<svg width="20" height="20" viewBox="0 0 20 20" fill="none" xmlns="http://www.w3.org/2000/svg">
<path d="M17 16.14L10.1562 19.8227C9.6875 20.0591 9.21875 20.0591 8.75 19.8227L2 16.14L14.2344 4.18277L14.5625 4.09184C14.8437 4.09184 15.0031 4.21005 15.0312 4.45556L17 16.14ZM7.01563 4.36463L2.75 11.2298L4.53125 0.363719C4.55937 0.118209 4.71875 0 5 0C5.1875 0 5.30937 0.0545579 5.375 0.227324L7.39062 3.81905L7.01563 4.36463ZM11.2344 5.51034L2.28125 14.2305L9.07813 3.04615C9.17188 2.86429 9.3125 2.78245 9.5 2.78245C9.6875 2.78245 9.80937 2.86429 9.875 3.04615L11.2344 5.51034Z" fill="#153131"/>
</svg>
