<svg width="20" height="20" viewBox="0 0 20 20" fill="none" xmlns="http://www.w3.org/2000/svg">
<g clip-path="url(#clip0_143_24)">
<path d="M20.1076 19.51L19.6843 19.1066C19.4824 18.8393 19.2568 18.5908 19.0101 18.3641L19.006 18.3608C18.7571 18.1347 18.4985 17.9197 18.2301 17.7158C18.0151 17.568 17.7196 17.39 17.3435 17.1816C17.0383 17.0462 16.795 16.8012 16.6618 16.495L16.6585 16.4866L16.6185 16.4666C16.7951 16.4491 16.9568 16.4166 17.1118 16.3708L17.0926 16.3758L17.5676 16.245C17.7643 16.1833 17.9918 16.1433 18.2276 16.1341H18.2326C18.481 16.1241 18.7151 16.0841 18.9385 16.0183L18.9176 16.0233C19.0254 15.9966 19.1362 15.9664 19.2501 15.9325C19.364 15.8986 19.4615 15.8683 19.5426 15.8416V15.7008C19.4621 15.5803 19.3646 15.4425 19.2501 15.2875C19.144 15.1425 19.0199 15.0114 18.881 14.8975L18.8768 14.8941C18.5273 14.5853 18.1654 14.2864 17.791 13.9975C17.4399 13.7247 17.0753 13.47 16.6985 13.2341L16.6418 13.2008C16.4245 13.0588 16.1943 12.9374 15.9543 12.8383L15.926 12.8283C15.6771 12.7272 15.4318 12.6164 15.1901 12.4958C15.1031 12.4532 15.0117 12.4199 14.9176 12.3966L14.9085 12.395C14.8145 12.3763 14.7294 12.3267 14.6668 12.2541L14.666 12.2533C14.5477 12.0964 14.4484 11.926 14.3701 11.7458L14.3635 11.7291C14.2829 11.5408 14.1957 11.36 14.1018 11.1866C13.9001 10.7966 13.7051 10.4003 13.5168 9.99748C13.3285 9.5947 13.1476 9.19137 12.9743 8.78748C12.8537 8.51859 12.7429 8.24998 12.6418 7.98165C12.5395 7.70813 12.4109 7.44522 12.2576 7.19665L12.2685 7.21582C11.9364 6.64647 11.5658 6.10048 11.1593 5.58165L11.1826 5.61332C10.8107 5.1422 10.4043 4.69932 9.96679 4.28832L9.96012 4.28248C9.5299 3.87884 9.07574 3.50149 8.60012 3.15248L8.55929 3.12332C8.06151 2.76165 7.51707 2.40554 6.92595 2.05498C6.67469 1.90843 6.40395 1.79817 6.12179 1.72748L6.10012 1.72248L5.17262 1.49082L4.64845 1.45082C4.47401 1.43748 4.29929 1.43082 4.12429 1.43082C4.00627 1.36905 3.89768 1.29076 3.80179 1.19832C3.7091 1.11015 3.61084 1.02804 3.50762 0.952483L3.49929 0.946649C2.95797 0.634284 2.38784 0.374753 1.79679 0.171649L1.72595 0.149983C1.57896 0.0658841 1.41493 0.0159268 1.24601 0.00380969C1.07709 -0.00830739 0.907614 0.0177261 0.750121 0.0799826L0.757621 0.0774826C0.602534 0.138301 0.462761 0.23256 0.348253 0.35355C0.233745 0.47454 0.147316 0.619285 0.0951208 0.777483L0.0926208 0.785816C0.00418977 0.998174 -0.0245407 1.23066 0.00953248 1.45816C0.0436057 1.68565 0.139188 1.89952 0.285954 2.07665L0.284287 2.07415C0.58651 2.47693 0.818176 2.79359 0.979287 3.02415C1.09984 3.18582 1.22429 3.35387 1.35262 3.52832C1.47012 3.68498 1.57429 3.86415 1.65845 4.05332L1.66512 4.07082C1.71179 4.16998 1.75262 4.28832 1.78262 4.40998L1.78512 4.42332C1.81179 4.53776 1.8454 4.6622 1.88595 4.79665C2.00651 5.10554 2.12068 5.4222 2.22845 5.74665C2.34595 6.10082 2.47595 6.40082 2.62679 6.68665L2.61095 6.65332C2.69151 6.80109 2.77234 6.94554 2.85345 7.08665C2.93457 7.22776 3.02179 7.36554 3.11512 7.49998C3.16805 7.57984 3.23631 7.64839 3.31595 7.70165L3.31845 7.70332C3.36019 7.73325 3.39456 7.7723 3.41896 7.81749C3.44336 7.86268 3.45715 7.91283 3.45929 7.96415C3.36097 8.1102 3.29897 8.27846 3.27845 8.45332L3.27762 8.45832C3.25148 8.65461 3.20883 8.84835 3.15012 9.03748L3.15679 9.01248C2.96076 9.61264 2.86201 10.2403 2.86429 10.8716C2.86429 11.0866 2.87512 11.2983 2.89762 11.5075L2.89512 11.4816C2.94512 12.28 3.18595 13.0133 3.57179 13.6483L3.56012 13.6275C3.72429 13.8733 3.90012 14.0875 4.09429 14.2833C4.20709 14.4102 4.35904 14.4958 4.52603 14.5264C4.69301 14.5571 4.86545 14.531 5.01595 14.4525L5.01179 14.4541C5.15619 14.4032 5.28219 14.3105 5.37375 14.1878C5.46531 14.0651 5.51829 13.9179 5.52595 13.765V13.7633C5.56595 13.3683 5.62595 13.015 5.70845 12.67L5.69762 12.7258C5.71874 12.6696 5.72947 12.61 5.72929 12.55L5.72762 12.5125V12.5141C5.72095 12.4536 5.7579 12.3964 5.83845 12.3425V12.3825C5.91901 12.5708 6.0029 12.7589 6.09012 12.9466C6.17734 13.1344 6.2679 13.3225 6.36179 13.5108C6.60762 13.885 6.86845 14.2116 7.15512 14.5125L7.15262 14.51C7.43779 14.8179 7.75234 15.0973 8.09179 15.3441L8.11012 15.3566C8.28679 15.4916 8.44179 15.6375 8.58179 15.7966L8.58512 15.8C8.71679 15.955 8.87429 16.0825 9.05179 16.1783L9.06012 16.1825V16.1625H9.10012C9.0685 16.0917 9.01621 16.0322 8.95012 15.9916L8.94845 15.9908C8.88732 15.9571 8.82857 15.9192 8.77262 15.8775L8.77679 15.88C8.65623 15.7594 8.53179 15.625 8.40345 15.4766C8.27512 15.3283 8.15762 15.1872 8.05095 15.0533C7.76873 14.6633 7.49957 14.2558 7.24345 13.8308C6.98734 13.4058 6.7454 12.9739 6.51762 12.535C6.40984 12.32 6.30568 12.0983 6.20512 11.87C6.10457 11.6416 6.00706 11.42 5.91262 11.205C5.86986 11.1176 5.84279 11.0234 5.83262 10.9266V10.9225C5.83037 10.8767 5.81629 10.8323 5.79175 10.7936C5.76722 10.7549 5.73306 10.7232 5.69262 10.7016L5.69095 10.7008C5.59555 10.8648 5.48145 11.0172 5.35095 11.155L5.35179 11.1541C5.21795 11.2952 5.11017 11.4588 5.03345 11.6375L5.02929 11.6483C4.90455 11.9561 4.82349 12.2798 4.78845 12.61L4.78679 12.6258C4.74679 12.9819 4.70651 13.348 4.66595 13.7241L4.62595 13.7441L4.60595 13.7641C4.50164 13.7432 4.40333 13.6992 4.31825 13.6353C4.23317 13.5714 4.16348 13.4893 4.11429 13.395L4.11262 13.3908C4.01151 13.1958 3.92095 13.0041 3.84095 12.8158C3.62265 12.2447 3.50344 11.6404 3.48845 11.0291V11.0216C3.44517 10.3685 3.52604 9.71304 3.72679 9.08998L3.71679 9.12665C3.75679 8.97887 3.84401 8.72998 3.97845 8.37998C4.1129 8.02998 4.13984 7.78804 4.05929 7.65415C4.01954 7.52164 3.94295 7.40314 3.83845 7.31248L3.83762 7.31165C3.73802 7.22538 3.64472 7.13209 3.55845 7.03248L3.55595 7.02915C3.46207 6.89359 3.37151 6.74915 3.28429 6.59582C3.19707 6.44248 3.11984 6.29137 3.05262 6.14248C2.89745 5.7753 2.76552 5.39873 2.65762 5.01498L2.63929 4.94082C2.52072 4.51202 2.36858 4.09323 2.18429 3.68832L2.20595 3.74165C2.11974 3.54377 2.01066 3.35667 1.88095 3.18415L1.88595 3.19082C1.7504 3.0097 1.62929 2.83832 1.52262 2.67665C1.38707 2.5022 1.25262 2.33415 1.11929 2.17248C0.980348 2.0042 0.861231 1.82049 0.764287 1.62498L0.756787 1.60832C0.71415 1.52126 0.680907 1.42991 0.657621 1.33582L0.655954 1.32665C0.641637 1.27931 0.637874 1.2294 0.644929 1.18045C0.651984 1.1315 0.669686 1.08469 0.696787 1.04332L0.695954 1.04498C0.704864 0.999921 0.725896 0.958144 0.756787 0.924149C0.790526 0.893994 0.831637 0.873295 0.875954 0.864149H0.877621C0.943369 0.821508 1.01895 0.796437 1.09715 0.79133C1.17535 0.786224 1.25355 0.801253 1.32429 0.834983L1.32179 0.834149C1.50429 0.885816 1.65179 0.937483 1.79595 0.996649L1.76595 0.985816C2.02095 1.09359 2.25623 1.19776 2.47179 1.29832C2.72012 1.41665 2.93179 1.54165 3.13179 1.68082L3.11679 1.67082C3.22457 1.73804 3.33206 1.81193 3.43929 1.89248C3.54651 1.97304 3.66068 2.05387 3.78179 2.13498H4.06429C4.27929 2.13498 4.50762 2.14526 4.74929 2.16582C4.99345 2.18498 5.21929 2.23082 5.43429 2.30248L5.41429 2.29665C5.81512 2.41582 6.15929 2.55665 6.48595 2.72582L6.45179 2.70998C6.78123 2.87776 7.09373 3.05582 7.38929 3.24415C7.88012 3.54998 8.30429 3.86332 8.70345 4.20582L8.68929 4.19415C9.10595 4.55082 9.48429 4.91665 9.83929 5.30332L9.84762 5.31332C10.1943 5.69165 10.5251 6.10248 10.8276 6.53332L10.8535 6.57248C11.1318 6.96582 11.4126 7.42082 11.6651 7.89248L11.7001 7.96332C11.7745 8.10792 11.8397 8.25711 11.8951 8.40998L11.9043 8.43748C11.9582 8.59193 12.0185 8.75026 12.0851 8.91248C12.2329 9.24859 12.3912 9.58776 12.5601 9.92998C12.729 10.2722 12.8873 10.605 13.0351 10.9283L13.4785 11.8958C13.6343 12.2341 13.8085 12.5258 14.011 12.795L14.0018 12.7825C14.171 12.9633 14.3968 13.09 14.6501 13.1341L14.6568 13.135C14.9635 13.2116 15.2218 13.2983 15.4718 13.4008L15.4326 13.3866C15.5518 13.4408 15.7051 13.4983 15.8626 13.5491L15.896 13.5583C16.0726 13.6125 16.226 13.6841 16.3668 13.7741L16.3593 13.77C16.6318 13.9225 16.8626 14.0725 17.0826 14.2358L17.0651 14.2233C17.2935 14.3911 17.5218 14.5494 17.7501 14.6983C17.8579 14.7789 18.0387 14.8964 18.2926 15.0508C18.5465 15.2053 18.681 15.3497 18.696 15.4841C18.1854 15.4665 17.6742 15.4907 17.1676 15.5566L17.2143 15.5516C16.7912 15.6066 16.377 15.7158 15.9818 15.8766L16.0151 15.865C15.9104 15.9094 15.8023 15.9453 15.6918 15.9725L15.676 15.9758C15.6186 15.9841 15.5656 16.0113 15.5254 16.0531C15.4852 16.0949 15.4602 16.149 15.4543 16.2066C15.5051 16.27 15.546 16.3441 15.5735 16.4241L15.5751 16.4291C15.6035 16.5141 15.6376 16.5875 15.6793 16.6558L15.6768 16.6508C15.776 16.8266 15.8826 16.9783 16.0026 17.1183L15.9993 17.1141C16.1168 17.2591 16.2493 17.385 16.396 17.4925L16.4018 17.4966C16.5373 17.6044 16.6785 17.7153 16.8251 17.8291C16.9593 17.9341 17.111 18.0375 17.2685 18.1308L17.2885 18.1416C17.5251 18.2866 17.8001 18.425 18.0868 18.5408L18.1251 18.5541C18.4368 18.6791 18.7043 18.8241 18.9526 18.9966L18.9393 18.9875C19.101 19.0814 19.2621 19.1855 19.4226 19.3C19.5832 19.4144 19.7376 19.5253 19.886 19.6325C19.9468 19.6925 20.0001 19.7591 20.0451 19.8316L20.0476 19.8358C20.1245 19.9245 20.2313 19.9817 20.3476 19.9966H20.3501V19.9566C20.2764 19.9009 20.2227 19.8229 20.1968 19.7341L20.196 19.7308C20.1769 19.6506 20.1454 19.5738 20.1026 19.5033L20.1043 19.5066L20.1076 19.51ZM4.62762 3.50582C4.51984 3.50582 4.41901 3.50915 4.32512 3.51582C4.23352 3.52171 4.14306 3.53935 4.05595 3.56832L4.06345 3.56582V3.58582H4.10345C4.15734 3.66637 4.22512 3.75693 4.30679 3.85748C4.38845 3.95804 4.46234 4.05554 4.52845 4.14998L4.85095 4.81498L4.89095 4.79498C4.9848 4.72743 5.05761 4.63468 5.10095 4.52748L5.10262 4.52332C5.14595 4.40748 5.17095 4.27248 5.17095 4.13248L5.17012 4.08748V4.08998C5.13233 4.05323 5.1018 4.0097 5.08012 3.96165L5.07929 3.95915L5.01179 3.80748C4.96856 3.73845 4.90675 3.683 4.83345 3.64748L4.83095 3.64665C4.75607 3.61089 4.68742 3.56334 4.62762 3.50582Z" fill="#153131"/>
</g>
<defs>
<clipPath id="clip0_143_24">
<rect width="20" height="20" fill="white"/>
</clipPath>
</defs>
</svg>
