<svg width="20" height="20" viewBox="0 0 20 20" fill="none" xmlns="http://www.w3.org/2000/svg">
<g clip-path="url(#clip0_277_19)">
<path d="M11.7759 0.0391846C11.6317 0.0391846 11.4975 0.0700179 11.3734 0.111685C11.6367 0.286685 11.7817 0.520018 11.8534 0.783351C11.8592 0.819185 11.8692 0.845018 11.8742 0.880851C11.8804 0.911609 11.884 0.942827 11.885 0.974185C11.905 1.42835 11.7659 1.48585 11.6684 1.75418C11.5184 2.10002 11.56 2.47168 11.74 2.77085C11.7565 2.81097 11.7772 2.84924 11.8017 2.88502C11.6059 1.57835 12.6959 1.38252 12.8967 0.974185C12.9125 0.617518 12.6184 0.380018 12.3859 0.215018C12.2032 0.100209 11.9916 0.039531 11.7759 0.0400179V0.0391846ZM13.4184 0.333351C13.3984 0.452518 13.4134 0.421685 13.4084 0.483351C13.4034 0.525018 13.4034 0.576685 13.3984 0.617518C13.3875 0.659185 13.3775 0.700851 13.3617 0.741685C13.3517 0.783351 13.3367 0.825018 13.32 0.865851L13.2642 0.984185C13.2475 1.00502 13.2384 1.02585 13.2225 1.04668L13.1917 1.09252C13.1671 1.12788 13.1413 1.16235 13.1142 1.19585C13.0834 1.22752 13.0575 1.26335 13.0209 1.28918V1.29418C12.99 1.32002 12.9592 1.35085 12.9225 1.37752C12.8142 1.46002 12.6909 1.52168 12.5767 1.59918C12.5409 1.62418 12.5042 1.64585 12.4734 1.67668C12.4383 1.70134 12.4054 1.72894 12.375 1.75918C12.3392 1.79002 12.3134 1.82085 12.2825 1.85752C12.2567 1.88835 12.2259 1.92418 12.205 1.96085C12.1791 1.99574 12.1549 2.0319 12.1325 2.06918C12.1117 2.11085 12.0967 2.14668 12.0759 2.18752C12.06 2.22918 12.045 2.26502 12.0342 2.30668C12.0205 2.34924 12.0086 2.39233 11.9984 2.43585C11.9934 2.45668 11.9934 2.48252 11.9884 2.50252C11.9825 2.52335 11.9825 2.54418 11.9775 2.56502C11.9775 2.60668 11.9725 2.65252 11.9725 2.69418C11.9725 2.72502 11.9725 2.75585 11.9775 2.78668C11.9775 2.82835 11.9825 2.87002 11.9934 2.91585C11.9984 2.95752 12.0084 2.99918 12.0184 3.04085C12.035 3.08168 12.045 3.12252 12.06 3.16418C12.0709 3.18918 12.0859 3.21585 12.0967 3.23668L10.9084 2.77668C10.7075 2.72002 10.5109 2.66835 10.3092 2.62168L9.9842 2.54418C9.6742 2.48252 9.3592 2.43585 9.0442 2.40502C9.03336 2.40502 9.02836 2.40002 9.01836 2.40002C8.48609 2.3467 7.95018 2.33973 7.4167 2.37918C7.1017 2.40002 6.7867 2.44085 6.4717 2.49252C6.23761 2.53285 6.00497 2.58121 5.7742 2.63752L5.5417 2.69918C5.46503 2.73002 5.3917 2.76585 5.32003 2.79752L5.1492 2.87502C5.1392 2.88002 5.1292 2.88002 5.1242 2.88502C5.0717 2.91085 5.02586 2.93168 4.9792 2.95752C4.9121 2.98712 4.84647 3.01993 4.78253 3.05585C4.7467 3.07085 4.71086 3.09168 4.6792 3.10752C4.6644 3.1167 4.6491 3.12505 4.63336 3.13252C4.5867 3.15918 4.54003 3.18502 4.49836 3.21085C4.45584 3.23436 4.41466 3.26023 4.37503 3.28835C4.33836 3.31335 4.30253 3.33418 4.2717 3.36002C4.2667 3.36585 4.26086 3.36585 4.25586 3.37085C4.22503 3.39168 4.1892 3.41752 4.15753 3.44335L4.14753 3.45335L4.07003 3.51502C4.06003 3.52085 4.0492 3.53085 4.0392 3.53585C4.01336 3.55668 3.98753 3.58252 3.9617 3.60252C3.9567 3.61335 3.94586 3.61918 3.94086 3.62335C3.91003 3.65502 3.8792 3.68085 3.84836 3.71168C3.84253 3.71168 3.84253 3.71668 3.83753 3.72168C3.80541 3.74976 3.77455 3.77923 3.74503 3.81002C3.7392 3.81502 3.7392 3.82002 3.7342 3.82002C3.70707 3.84657 3.68121 3.87437 3.6567 3.90335C3.6467 3.91335 3.6317 3.92335 3.62086 3.93335C3.59319 3.96609 3.5637 3.99725 3.53253 4.02668C3.52753 4.03668 3.51753 4.04252 3.51253 4.05168C3.47086 4.09335 3.43503 4.13502 3.39336 4.17668L3.37836 4.19168C3.29503 4.28002 3.20753 4.36752 3.1142 4.44502C3.0217 4.52835 2.92336 4.60502 2.82503 4.67252C2.62759 4.81355 2.41451 4.93127 2.19003 5.02335C2.0817 5.07002 1.96753 5.11168 1.8542 5.14752C1.63753 5.19418 1.41503 5.28168 1.2242 5.29752C1.18253 5.29752 1.1367 5.30752 1.09503 5.31252L0.965864 5.34335L0.841698 5.39002C0.800031 5.40585 0.759198 5.42668 0.718364 5.44668C0.681698 5.47252 0.640864 5.49335 0.604198 5.51918C0.56743 5.5458 0.532873 5.57534 0.500864 5.60752C0.465031 5.63252 0.428364 5.66918 0.397531 5.70002C0.366698 5.73585 0.335864 5.76668 0.310031 5.80335C0.284198 5.84502 0.253364 5.88085 0.232531 5.92252C0.205388 5.96006 0.181151 5.99962 0.160031 6.04085C0.139198 6.08752 0.118364 6.12918 0.103364 6.17502C0.0875312 6.21668 0.0725312 6.26335 0.0566978 6.30918C0.0466978 6.35085 0.0358645 6.39252 0.0316978 6.43418C0.0316978 6.43835 0.0258645 6.44418 0.0258645 6.44918C0.0158645 6.49585 0.0158645 6.55752 0.0100312 6.58835C0.00503116 6.62502 3.11619e-05 6.65502 3.11619e-05 6.69168C-0.000927603 6.78155 0.0202511 6.87027 0.0616978 6.95002V6.95502C0.0775312 6.98585 0.0983645 7.01752 0.119198 7.04835C0.139198 7.07918 0.160864 7.11002 0.185864 7.14085C0.211698 7.16668 0.242531 7.19835 0.274198 7.22418C0.304309 7.25439 0.336926 7.28199 0.371698 7.30668C0.495864 7.41502 0.526698 7.45085 0.686698 7.53335C0.712531 7.54918 0.738364 7.55918 0.770031 7.57502C0.775031 7.57502 0.780031 7.58002 0.785031 7.58002C0.785031 7.59085 0.785031 7.59585 0.790031 7.60585C0.802094 7.69103 0.824481 7.77442 0.856698 7.85418C0.873364 7.88502 0.883364 7.91585 0.898364 7.94668C0.904198 7.95752 0.909198 7.96752 0.915031 7.97252C0.935031 8.01418 0.955864 8.05002 0.975864 8.08668L1.05336 8.19502C1.0792 8.22585 1.11086 8.26168 1.1417 8.29335C1.17253 8.32418 1.20336 8.35002 1.24003 8.38085C1.24003 8.38085 1.24503 8.38585 1.25003 8.38585C1.28086 8.41168 1.3117 8.43752 1.34336 8.45835C1.3793 8.48356 1.4172 8.50586 1.4567 8.52502C1.49253 8.54585 1.5342 8.56668 1.57503 8.58252C1.60833 8.59754 1.64291 8.60953 1.67836 8.61835C1.6842 8.62335 1.6892 8.62335 1.6992 8.62835C1.72003 8.63418 1.74586 8.63918 1.76586 8.64418C1.75086 8.92335 1.74586 9.18585 1.78753 9.27918C1.83336 9.38252 2.06086 9.06752 2.28753 8.70585C2.25753 9.06252 2.2367 9.48085 2.28753 9.60502C2.34503 9.73418 2.6542 9.33085 2.92336 8.88668C6.58586 8.04002 9.92753 10.57 10.2784 14.145C10.2117 13.5867 9.5242 13.2775 9.2092 13.355C9.0542 13.7367 8.79086 14.2275 8.36753 14.5325C8.40336 14.1908 8.38836 13.8408 8.31586 13.4992C8.20018 13.9748 7.98141 14.4191 7.67503 14.8008C7.18503 14.8367 6.6942 14.5992 6.43586 14.2425C6.41503 14.2275 6.41003 14.1967 6.3942 14.1758C6.3792 14.14 6.36336 14.1034 6.35253 14.0675C6.33754 14.0329 6.32717 13.9965 6.3217 13.9592C6.3167 13.9225 6.3167 13.8867 6.3167 13.845V13.7675C6.32286 13.7309 6.33149 13.6947 6.34253 13.6592C6.35336 13.6234 6.36336 13.5875 6.3792 13.5508C6.3992 13.515 6.41503 13.4784 6.44086 13.4425C6.52836 13.1942 6.52836 12.9925 6.36836 12.8742C6.33729 12.8539 6.30436 12.8366 6.27003 12.8225C6.25003 12.8175 6.2242 12.8075 6.20336 12.8017L6.1617 12.7867C6.12632 12.7752 6.0901 12.7666 6.05336 12.7609C6.01817 12.7505 5.9817 12.7452 5.94503 12.745C5.90752 12.7391 5.86966 12.7358 5.8317 12.735C5.80586 12.735 5.78003 12.74 5.7542 12.74C5.71558 12.7398 5.67713 12.7451 5.64003 12.7559C5.6042 12.7609 5.56836 12.7659 5.5317 12.7759C5.49484 12.7857 5.45865 12.798 5.42336 12.8125C5.38753 12.8275 5.3567 12.8434 5.32003 12.8592C5.2892 12.8742 5.25836 12.895 5.2217 12.9109C4.01836 13.6959 4.7367 15.5342 5.55753 16.0667C5.24753 16.1234 4.93253 16.19 4.84503 16.2575L4.8342 16.2675C5.0567 16.4017 5.2892 16.5159 5.5317 16.6142C5.86253 16.7225 6.21336 16.82 6.36836 16.8617V16.8667C6.79631 16.9546 7.23393 16.9859 7.67003 16.96C9.95836 16.8 11.8334 15.0592 12.1742 12.7659L12.205 12.9C12.2209 12.9934 12.2409 13.0917 12.2517 13.1892V13.1942C12.2617 13.2409 12.2667 13.2875 12.2725 13.3292V13.3492C12.2775 13.3959 12.2825 13.4425 12.2825 13.4842C12.2875 13.5408 12.2925 13.5975 12.2925 13.6542V13.7375C12.2925 13.7625 12.2984 13.7934 12.2984 13.8192C12.2984 13.8509 12.2925 13.8817 12.2925 13.9125V13.985C12.2925 14.0208 12.2875 14.0517 12.2875 14.0884C12.2875 14.1092 12.2875 14.13 12.2825 14.155C12.2825 14.1917 12.2775 14.2275 12.2775 14.2692C12.2725 14.2842 12.2725 14.3 12.2725 14.315L12.2559 14.4342C12.2559 14.45 12.2559 14.465 12.2517 14.4809C12.2459 14.5325 12.2359 14.5792 12.2309 14.6308V14.6409L12.2 14.7859V14.8008L12.1692 14.94C12.1692 14.9458 12.1634 14.9567 12.1634 14.9608C12.1539 15.0081 12.1419 15.0548 12.1275 15.1009V15.1159C12.1117 15.1675 12.0967 15.2142 12.0859 15.2608C12.0809 15.2658 12.0809 15.2709 12.0809 15.2709L12.0342 15.4258C12.0142 15.4775 11.9984 15.5242 11.9775 15.5759C11.9567 15.6275 11.9417 15.6792 11.9209 15.7259C11.9 15.7775 11.8792 15.8234 11.8592 15.8759H11.8534C11.8334 15.9217 11.8117 15.9734 11.7867 16.02C11.7824 16.0324 11.7771 16.0443 11.7709 16.0559C11.7659 16.0609 11.7659 16.0667 11.7609 16.0717C11.4193 16.7555 10.9221 17.3498 10.3092 17.8067C10.2675 17.8325 10.2267 17.8642 10.185 17.895C10.175 17.905 10.16 17.91 10.1492 17.92C10.1123 17.9473 10.0745 17.9734 10.0359 17.9983L10.0509 18.0292H10.0567L10.2734 17.9983H10.2784C10.4125 17.9775 10.5467 17.9517 10.6809 17.9258C10.7175 17.9208 10.7584 17.91 10.795 17.9L10.8675 17.8842C10.9034 17.8792 10.9392 17.8692 10.9759 17.8642C11.0067 17.8534 11.0375 17.8475 11.0684 17.8384C11.585 17.7134 12.0859 17.5434 12.5667 17.3425C11.7366 18.4732 10.6325 19.3742 9.35836 19.9608C9.95336 19.9192 10.5467 19.8217 11.12 19.6558C13.1952 19.0457 14.9479 17.6453 16.0009 15.7558C15.7882 16.9519 15.3138 18.0862 14.6117 19.0775C15.1123 18.7473 15.5748 18.3628 15.9909 17.9309C17.147 16.7238 17.906 15.1919 18.1659 13.5409C18.3409 14.3575 18.3925 15.1992 18.3159 16.03C22.0442 10.8292 18.625 5.43668 17.1942 4.01668C17.1892 4.00585 17.1842 4.00085 17.1842 3.99085C17.1792 3.99585 17.1792 3.99585 17.1792 4.00085C17.1792 3.99585 17.1792 3.99585 17.1734 3.99085C17.1734 4.05252 17.1684 4.11418 17.1634 4.17668C17.149 4.29238 17.1318 4.40769 17.1117 4.52252C17.0867 4.63585 17.055 4.75002 17.0242 4.86418C16.9875 4.97252 16.9467 5.08585 16.8992 5.19418C16.852 5.30118 16.8006 5.40626 16.745 5.50918C16.6297 5.71166 16.4967 5.90352 16.3475 6.08252C16.27 6.17502 16.1875 6.25752 16.1042 6.34085C16.0555 6.38538 16.0055 6.42846 15.9542 6.47002L15.8359 6.57335C15.7437 6.64613 15.6471 6.71319 15.5467 6.77418C15.448 6.83776 15.3462 6.89645 15.2417 6.95002C15.1334 7.00168 15.025 7.04835 14.9167 7.09502C14.696 7.17894 14.4677 7.24118 14.235 7.28085C14.1159 7.30168 13.9975 7.31168 13.8834 7.32252C13.801 7.32835 13.7184 7.33168 13.6359 7.33252C13.5184 7.3309 13.401 7.32395 13.2842 7.31168C13.1662 7.30242 13.049 7.28516 12.9334 7.26002C12.8162 7.23876 12.7007 7.20953 12.5875 7.17252H12.5817C12.6959 7.16168 12.8092 7.15168 12.9234 7.13085C13.1559 7.09053 13.3842 7.02831 13.605 6.94502C13.7184 6.90335 13.8267 6.85168 13.93 6.80002C14.0384 6.74835 14.1367 6.69168 14.24 6.63002C14.3384 6.56335 14.4359 6.49585 14.5292 6.42335C14.6225 6.35085 14.71 6.27335 14.7925 6.19085C14.88 6.11335 14.9575 6.02585 15.035 5.93752C15.1125 5.84502 15.185 5.75168 15.2517 5.65918C15.2625 5.64335 15.2734 5.62252 15.2834 5.60752C15.335 5.52418 15.3867 5.44168 15.4334 5.35918C15.5472 5.15362 15.6405 4.93729 15.7117 4.71335C15.7484 4.60502 15.7742 4.49168 15.8 4.37752C15.8209 4.25918 15.8417 4.14585 15.8517 4.03168C15.8617 3.91335 15.8725 3.79418 15.8725 3.68085C15.8725 3.59752 15.8667 3.51502 15.8617 3.43252C15.8514 3.31684 15.8375 3.2015 15.82 3.08668C15.7999 2.97026 15.7744 2.85485 15.7434 2.74085C15.7067 2.63252 15.6709 2.51835 15.6292 2.41002C15.5875 2.30168 15.5367 2.19335 15.485 2.09002C15.4275 1.98668 15.3709 1.88335 15.3092 1.78502C15.2432 1.68848 15.1743 1.59399 15.1025 1.50168C15.025 1.41335 14.9475 1.32502 14.865 1.23752C14.8216 1.19318 14.7768 1.15011 14.7309 1.10835C14.4975 0.927518 14.2559 0.757518 14.0125 0.602518C13.9792 0.58324 13.9446 0.565987 13.9092 0.550851C13.756 0.457046 13.5909 0.383343 13.4184 0.333351Z" fill="#153131"/>
</g>
<defs>
<clipPath id="clip0_277_19">
<rect width="20" height="20" fill="white"/>
</clipPath>
</defs>
</svg>
