<svg width="20" height="20" viewBox="0 0 20 20" fill="none" xmlns="http://www.w3.org/2000/svg">
<path d="M10 0C9.73 0 9.45 0.0689655 9.22 0.197044L1.78 4.4335C1.3 4.70936 1 5.22168 1 5.7734V14.2266C1 14.7783 1.3 15.2906 1.78 15.5665L3.73 16.67C4.68 17.1232 5 17.133 5.44 17.133C6.84 17.133 7.65 16.2956 7.65 14.8374V6.49261C7.65 6.37438 7.55 6.27586 7.43 6.27586H6.5C6.37 6.27586 6.27 6.37438 6.27 6.49261V14.8374C6.27 15.4877 5.59 16.1281 4.5 15.5862L2.45 14.4335C2.41633 14.4101 2.3888 14.3791 2.36967 14.3431C2.35055 14.3071 2.34038 14.2672 2.34 14.2266V5.7734C2.34 5.68473 2.38 5.60591 2.45 5.5665L9.89 1.3399C9.95 1.30049 10.05 1.30049 10.11 1.3399L17.55 5.5665C17.62 5.60591 17.66 5.68473 17.66 5.7734V14.2266C17.66 14.3054 17.62 14.3842 17.55 14.4335L10.11 18.6601C10.05 18.6995 9.95 18.6995 9.88 18.6601L8 17.5369C7.92 17.5074 7.84 17.4975 7.79 17.5271C7.26 17.8227 7.16 17.8818 6.67 18.0296C6.55 18.069 6.36 18.1379 6.74 18.3448L9.22 19.7931C9.46 19.931 9.72 20 10 20C10.28 20 10.54 19.931 10.78 19.7931L18.22 15.5665C18.7 15.2906 19 14.7783 19 14.2266V5.7734C19 5.22168 18.7 4.70936 18.22 4.4335L10.78 0.197044C10.55 0.0689655 10.28 0 10 0ZM12 6.05911C9.88 6.05911 8.61 6.93596 8.61 8.41379C8.61 10 9.87 10.4631 11.91 10.6601C14.34 10.8966 14.53 11.2512 14.53 11.7241C14.53 12.5419 13.86 12.8867 12.3 12.8867C10.32 12.8867 9.9 12.4039 9.75 11.4384C9.73947 11.3885 9.71188 11.3437 9.67184 11.3114C9.6318 11.2791 9.58173 11.2614 9.53 11.2611H8.57C8.45 11.2611 8.36 11.3498 8.36 11.4778C8.36 12.6995 9.04 14.1773 12.3 14.1773C14.65 14.1773 16 13.2611 16 11.665C16 10.0788 14.92 9.66502 12.63 9.35961C10.32 9.06404 10.09 8.9064 10.09 8.37438C10.09 7.93103 10.29 7.3399 12 7.3399C13.5 7.3399 14.09 7.66502 14.32 8.6798C14.34 8.77832 14.43 8.84729 14.53 8.84729H15.5C15.55 8.84729 15.61 8.82759 15.65 8.77833C15.69 8.73892 15.72 8.6798 15.7 8.62069C15.56 6.867 14.38 6.05911 12 6.05911Z" fill="#153131"/>
</svg>
