<svg width="20" height="20" viewBox="0 0 20 20" fill="none" xmlns="http://www.w3.org/2000/svg">
<path d="M5.84312 8.50562H5.055L4.62563 10.7125H5.32562C5.7875 10.7125 6.1325 10.625 6.36063 10.4494C6.585 10.2769 6.73813 9.98374 6.81625 9.57687C6.89375 9.18624 6.85812 8.90937 6.71562 8.74687C6.56875 8.58749 6.27875 8.50562 5.84312 8.50562ZM10 4.73999C4.47563 4.73999 0 7.09687 0 9.99999C0 12.9031 4.47563 15.26 10 15.26C15.5244 15.26 20 12.9031 20 9.99999C20 7.09687 15.5244 4.73999 10 4.73999ZM7.28188 10.9506C7.06552 11.1586 6.80512 11.3151 6.52 11.4087C6.24 11.4969 5.8825 11.5456 5.44937 11.5456H4.4625L4.1925 12.9456H3.04312L4.06875 7.67562H6.27563C6.94 7.67562 7.425 7.84812 7.73063 8.19624C8.03375 8.54437 8.12812 9.03312 8.00375 9.65812C7.95721 9.90562 7.87177 10.1442 7.75063 10.365C7.62596 10.5837 7.46755 10.7813 7.28125 10.9506H7.28188ZM10.6381 11.5456L11.0906 9.21249C11.1425 8.94812 11.1231 8.76687 11.0312 8.66812C10.9437 8.57374 10.7512 8.52499 10.4587 8.52499H9.55063L8.965 11.5456H7.8225L8.8475 6.27249H9.98688L9.71375 7.67562H10.7294C11.3712 7.67562 11.81 7.78624 12.0512 8.00749C12.2956 8.23249 12.3669 8.59312 12.2731 9.09187L11.7938 11.5462L10.6381 11.5456ZM16.9656 9.65812C16.9205 9.90601 16.835 10.1448 16.7125 10.365C16.589 10.5834 16.4319 10.7811 16.2469 10.9506C16.0286 11.1576 15.7674 11.314 15.4819 11.4087C15.2019 11.4969 14.8438 11.5456 14.4113 11.5456H13.4281L13.155 12.9456H12.0056L13.0313 7.67562H15.2381C15.9025 7.67562 16.3875 7.84812 16.6931 8.19999C16.9962 8.54499 17.09 9.03312 16.9656 9.65812ZM14.805 8.50562H14.02L13.5906 10.7125H14.2875C14.7525 10.7125 15.0975 10.625 15.3225 10.4494C15.55 10.2769 15.7031 9.98374 15.7819 9.57687C15.8594 9.18624 15.8238 8.90937 15.6769 8.74687C15.5344 8.58749 15.2412 8.50562 14.805 8.50562Z" fill="#153131"/>
</svg>
