<svg width="20" height="20" viewBox="0 0 20 20" fill="none" xmlns="http://www.w3.org/2000/svg">
<path d="M10 8.21627C9.01688 8.21627 8.21625 9.0169 8.21625 10C8.21625 10.9831 9.01688 11.7838 10 11.7838C10.9831 11.7838 11.7838 10.9831 11.7838 10C11.7838 9.0169 10.9831 8.21627 10 8.21627ZM5.00625 13.545L4.6125 13.4475C1.6825 12.705 0 11.4488 0 9.9969C0 8.54502 1.68313 7.28877 4.6125 6.54627L5.00625 6.44877L5.11688 6.8394C5.41411 7.86253 5.79411 8.85978 6.25313 9.82127L6.3375 9.9969L6.25313 10.1756C5.79315 11.1367 5.41312 12.1341 5.11688 13.1575L5.00625 13.545ZM4.43063 7.45752C2.20375 8.08252 0.836875 9.04252 0.836875 9.9969C0.836875 10.9513 2.20438 11.9075 4.43063 12.5363C4.70353 11.6692 5.03299 10.8209 5.41687 9.9969C5.03245 9.17313 4.70298 8.32481 4.43063 7.45752ZM14.9937 13.545L14.8831 13.1544C14.5864 12.1321 14.2064 11.1358 13.7469 10.1756L13.6625 9.9969L13.7469 9.81815C14.2068 8.85707 14.5869 7.85974 14.8831 6.83627L14.9937 6.44877L15.3875 6.54627C18.3175 7.28877 20 8.54502 20 9.9969C20 11.4488 18.3169 12.705 15.3875 13.4475L14.9937 13.545ZM14.5831 9.9969C14.9683 10.8203 15.2978 11.6687 15.5694 12.5363C17.7994 11.9081 19.1631 10.9513 19.1631 9.9969C19.1631 9.04252 17.7956 8.08627 15.5694 7.45752C15.2958 8.3244 14.9664 9.17263 14.5831 9.9969ZM4.42375 7.4544L4.31313 7.06377C3.48938 4.16002 3.74 2.0769 5 1.35065C6.23687 0.637521 8.21938 1.48065 10.2994 3.61627L10.5825 3.90627L10.2994 4.19627C9.56072 4.96479 8.88579 5.79209 8.28125 6.67002L8.1675 6.8294L7.97188 6.84565C6.90842 6.92959 5.85352 7.09952 4.8175 7.35377L4.42375 7.4544ZM6.00563 1.93065C5.78125 1.93065 5.5825 1.97627 5.41625 2.07377C4.58938 2.55252 4.44313 4.21252 5.0125 6.4519C5.9009 6.25317 6.80137 6.11287 7.70813 6.0319C8.23016 5.28839 8.801 4.58037 9.41688 3.91252C8.11813 2.64627 6.8875 1.93065 6.00563 1.93065ZM13.9975 18.8963C13.9944 18.8963 13.9944 18.8963 13.9975 18.8963C12.8094 18.8963 11.2825 18.0044 9.70062 16.3769L9.4175 16.0869L9.70062 15.7969C10.4393 15.0284 11.1142 14.2011 11.7188 13.3231L11.8294 13.1638L12.025 13.1444C13.0898 13.0633 14.146 12.8933 15.1825 12.6363L15.5763 12.5388L15.6869 12.9294C16.5106 15.8331 16.26 17.9131 15 18.6388C14.6954 18.8139 14.3488 18.9033 13.9975 18.8963ZM10.5825 16.0806C11.8812 17.3469 13.1119 18.0631 13.9937 18.0631H13.9969C14.2181 18.0631 14.4169 18.0144 14.5831 17.92C15.41 17.4413 15.56 15.7813 14.9869 13.5419C14.0986 13.7408 13.1981 13.8801 12.2913 13.9588C11.7692 14.7033 11.1984 15.4117 10.5825 16.0806ZM15.5763 7.4544L15.1825 7.35377C14.1453 7.10036 13.0894 6.93045 12.025 6.84565L11.8294 6.8294L11.7188 6.67002C11.1142 5.79209 10.4393 4.96479 9.70062 4.19627L9.4175 3.90627L9.70062 3.61627C11.7806 1.48065 13.7631 0.637521 15 1.35065C16.26 2.07627 16.5106 4.16002 15.6869 7.06377L15.5763 7.4544ZM12.2919 6.0319C13.1987 6.11265 14.0991 6.25295 14.9875 6.4519C15.5606 4.21252 15.4106 2.5519 14.5837 2.07377C13.76 1.59877 12.2106 2.32752 10.5831 3.91315C11.1973 4.58243 11.7681 5.29034 12.2919 6.03252V6.0319ZM6.00563 18.8963C5.65375 18.9025 5.30562 18.815 5 18.6394C3.74 17.9138 3.48938 15.8331 4.31313 12.93L4.42375 12.5394L4.8175 12.6369C5.78125 12.8813 6.8425 13.05 7.97188 13.145L8.1675 13.1644L8.27812 13.3238C8.88266 14.2017 9.5576 15.029 10.2963 15.7975L10.5794 16.0875L10.2963 16.3775C8.7175 18.005 7.19063 18.8969 6.00563 18.8969V18.8963ZM5.01312 13.5419C4.44 15.7813 4.59 17.4419 5.41687 17.92C6.24062 18.3888 7.78687 17.6663 9.4175 16.0806C8.80159 15.4117 8.23076 14.7027 7.70875 13.9581C6.80189 13.8797 5.90132 13.7411 5.01312 13.5419ZM10 14.0656C9.31313 14.0656 8.61 14.0363 7.90375 13.9775L7.70813 13.9613L7.59438 13.7988C7.19545 13.2256 6.82074 12.6359 6.47125 12.0313C6.12103 11.4266 5.79637 10.8075 5.49812 10.1756L5.41375 9.9969L5.49812 9.81815C6.09564 8.55463 6.79679 7.34278 7.59438 6.19502L7.70813 6.03252L7.90375 6.01627C9.29878 5.89877 10.7012 5.89877 12.0963 6.01627L12.2919 6.03252L12.4056 6.19502C13.2042 7.34213 13.9054 8.55407 14.5019 9.81815L14.5862 9.9969L14.5019 10.1756C13.9066 11.4404 13.2054 12.6524 12.4056 13.7988L12.2919 13.9613L12.0963 13.9775C11.399 14.0359 10.6997 14.0653 10 14.0656ZM8.17062 13.1606C9.40125 13.255 10.5987 13.255 11.8325 13.1606C12.5206 12.1531 13.1321 11.0953 13.6619 9.99627C13.1343 8.8954 12.5216 7.8374 11.8294 6.8319C10.6116 6.73752 9.38838 6.73752 8.17062 6.8319C7.47789 7.83708 6.86517 8.89513 6.33812 9.99627C6.86808 11.0959 7.48067 12.1537 8.17062 13.1606Z" fill="#153131"/>
</svg>
