<svg width="346" height="34" viewBox="0 0 346 34" fill="none" xmlns="http://www.w3.org/2000/svg">
<rect y="31.8283" width="345.564" height="1.81876" fill="#333333"/>
<rect x="59.1096" y="27.2814" width="227.345" height="1.81876" fill="#333333"/>
<rect x="90.938" y="22.7345" width="163.688" height="1.81876" fill="#333333"/>
<path d="M180.057 11.8219C181.199 9.00324 182.039 8.32527 183.695 8.18443L180.057 11.8219Z" fill="#333333"/>
<path d="M180.057 11.8219C182.858 10.636 183.58 9.84158 183.695 8.18443L180.057 11.8219Z" fill="#333333"/>
<path d="M166.416 11.8219C165.275 9.00324 164.434 8.32527 162.779 8.18443L166.416 11.8219Z" fill="#333333"/>
<path d="M166.416 11.8219C163.616 10.636 162.893 9.84158 162.779 8.18443L166.416 11.8219Z" fill="#333333"/>
<path d="M174.601 22.7345H179.148C182.39 18.1865 184.356 16.3835 189.151 14.5501C183.096 12.6917 179.781 11.6622 176.139 15.9814C176.024 16.1261 175.906 16.2721 175.783 16.4194C175.902 16.2677 176.021 16.1217 176.139 15.9814C180.492 10.4947 179.224 6.8367 173.237 0V6.36566C174.568 10.9366 174.461 14.292 174.601 19.097C177.778 16.5596 180.525 14.8801 184.823 15.0048C179.659 16.5046 177.037 18.458 174.601 22.7345Z" fill="#333333"/>
<path d="M171.873 22.7345H167.326C164.084 18.1865 162.117 16.3835 157.323 14.5501C163.378 12.6917 166.693 11.6622 170.335 15.9814C170.449 16.1261 170.568 16.2721 170.691 16.4194C170.572 16.2677 170.453 16.1217 170.335 15.9814C165.982 10.4947 167.25 6.8367 173.237 0V6.36566C171.906 10.9366 172.013 14.292 171.873 19.097C168.695 16.5596 166.077 15.0316 161.779 15.1562C166.942 16.6561 169.437 18.458 171.873 22.7345Z" fill="#333333"/>
</svg>
