<svg id="svg" version="1.1" width="600" height="800" xmlns="http://www.w3.org/2000/svg"><path d="M269.000 38.141 C 266.525 38.630,256.850 39.217,247.500 39.443 C 238.150 39.670,228.925 40.319,227.000 40.885 C 225.075 41.451,218.775 43.295,213.000 44.983 C 207.225 46.671,201.635 48.542,200.579 49.141 C 199.522 49.740,196.597 51.361,194.079 52.741 C 191.560 54.122,188.600 56.040,187.500 57.003 C 186.400 57.965,183.622 59.917,181.328 61.340 C 173.212 66.372,166.333 74.714,159.479 87.835 C 156.070 94.363,152.000 103.999,152.000 105.546 C 152.000 106.259,149.697 110.815,146.883 115.671 C 140.602 126.509,131.330 149.251,130.086 156.869 C 129.581 159.966,128.608 163.850,127.924 165.500 C 127.126 167.424,126.530 175.853,126.262 189.000 C 125.748 214.171,127.098 231.818,131.546 258.086 C 133.355 268.768,133.461 282.996,131.750 285.301 C 131.063 286.227,128.475 288.001,126.000 289.242 C 119.935 292.285,116.736 298.261,118.234 303.749 C 120.872 313.413,120.032 323.374,115.011 341.932 C 113.905 346.020,113.000 350.986,113.000 352.967 C 113.000 356.661,115.628 365.162,118.419 370.500 C 119.336 372.253,119.990 376.005,119.994 379.527 C 120.000 385.882,121.212 388.545,125.977 392.672 C 128.657 394.994,137.860 398.000,142.288 398.000 C 144.675 398.000,145.101 398.582,146.496 403.750 C 151.026 420.537,155.459 434.981,156.952 437.816 C 157.440 438.742,159.241 442.324,160.954 445.776 C 164.128 452.170,165.736 454.958,169.771 461.064 C 172.550 465.270,172.643 465.715,173.703 480.000 C 174.579 491.806,173.702 499.698,171.240 502.160 C 170.558 502.842,170.000 503.765,170.000 504.210 C 170.000 504.656,168.523 507.153,166.718 509.760 C 164.913 512.367,161.482 517.822,159.094 521.883 C 156.706 525.944,154.021 530.159,153.126 531.251 C 151.248 533.544,142.380 537.976,139.641 537.990 C 138.619 537.996,132.769 540.613,126.641 543.807 C 120.514 547.000,114.150 550.110,112.500 550.718 C 110.850 551.325,105.450 553.395,100.500 555.319 C 77.230 564.361,69.990 567.001,63.500 568.808 C 57.338 570.524,44.296 575.131,37.000 578.169 C 29.613 581.245,2.511 591.000,1.353 591.000 C 0.516 591.000,0.000 592.145,0.000 594.000 C 0.000 595.650,0.171 597.000,0.381 597.000 C 0.590 597.000,5.203 595.362,10.631 593.361 C 16.059 591.359,26.575 587.588,34.000 584.981 C 41.425 582.374,49.075 579.570,51.000 578.751 C 55.881 576.673,60.854 574.982,65.219 573.914 C 67.265 573.413,72.440 571.600,76.719 569.885 C 80.999 568.169,87.425 565.724,91.000 564.451 C 112.826 556.678,128.911 549.782,135.021 545.579 C 138.075 543.479,141.431 542.000,143.144 542.000 C 151.235 542.000,157.202 536.403,165.025 521.477 C 168.036 515.731,170.778 511.023,171.119 511.015 C 171.459 511.007,171.969 519.438,172.252 529.750 C 172.660 544.598,173.184 549.853,174.769 555.000 C 177.551 564.034,182.682 582.789,183.523 587.000 C 183.907 588.925,187.377 599.876,191.232 611.336 L 198.242 632.172 194.086 640.559 C 191.800 645.172,187.972 653.571,185.579 659.223 C 172.801 689.402,159.747 716.431,153.337 725.982 C 150.200 730.656,150.206 733.095,153.347 730.144 C 158.969 724.862,171.466 699.882,191.689 653.500 C 195.287 645.250,198.593 638.107,199.038 637.627 C 199.994 636.595,200.744 639.368,207.668 669.500 C 213.446 694.646,214.868 701.080,217.061 712.000 C 218.221 717.775,220.772 730.150,222.731 739.500 C 227.446 762.014,228.865 769.459,229.631 775.700 C 230.204 780.363,230.557 780.964,233.057 781.513 C 235.423 782.032,235.940 782.759,236.469 786.312 C 238.033 796.811,239.139 800.000,241.216 800.000 C 242.918 800.000,243.125 799.570,242.541 797.250 C 242.161 795.737,241.379 790.788,240.803 786.250 C 239.906 779.179,239.485 778.000,237.857 778.000 C 235.495 778.000,234.463 775.438,233.227 766.500 C 232.104 758.385,227.742 737.743,224.937 727.271 C 223.871 723.295,223.000 718.888,223.000 717.477 C 223.000 716.066,222.351 712.119,221.558 708.706 C 220.764 705.292,219.189 698.337,218.058 693.250 C 212.990 670.469,211.674 664.803,208.939 654.000 C 207.338 647.675,205.756 641.375,205.423 640.000 C 204.316 635.432,197.868 614.555,196.466 611.000 C 195.707 609.075,194.162 604.125,193.033 600.000 C 189.748 587.999,187.243 579.236,183.884 568.000 C 177.333 546.081,176.999 543.732,177.015 519.687 C 177.025 503.138,177.390 496.465,178.448 493.428 C 179.509 490.385,179.623 488.269,178.901 485.053 C 178.369 482.686,177.939 479.119,177.946 477.125 C 177.976 468.311,176.766 463.486,173.358 458.825 C 169.208 453.149,160.615 435.082,157.508 425.500 C 156.260 421.650,153.968 413.571,152.415 407.546 C 150.863 401.521,148.784 395.784,147.796 394.796 C 146.546 393.546,144.477 393.000,140.989 393.000 C 134.629 393.000,127.421 389.714,125.459 385.920 C 124.656 384.369,124.000 380.434,124.000 377.176 C 124.000 372.613,123.385 370.152,121.325 366.467 C 117.769 360.103,116.986 348.985,119.491 340.415 C 123.735 325.900,124.139 323.395,123.821 313.589 L 123.500 303.677 127.320 302.075 C 129.421 301.194,130.809 300.142,130.403 299.737 C 129.241 298.574,124.522 298.878,123.200 300.200 C 121.640 301.760,121.545 299.720,123.046 296.915 C 123.883 295.351,132.993 290.000,134.819 290.000 C 135.252 290.000,134.522 299.699,133.371 309.250 C 132.900 313.156,133.080 314.000,134.380 314.000 C 135.298 314.000,136.206 312.846,136.544 311.250 C 136.864 309.738,137.959 305.800,138.978 302.500 C 143.957 286.375,144.189 284.771,144.982 260.930 C 145.451 246.850,146.217 236.571,146.883 235.423 C 150.049 229.968,150.436 226.976,150.482 207.614 L 150.529 187.729 148.108 193.063 C 146.675 196.220,145.751 200.008,145.842 202.347 C 145.928 204.519,145.517 208.081,144.930 210.262 C 144.342 212.443,143.795 218.113,143.714 222.863 C 143.633 227.614,143.409 230.263,143.217 228.750 C 142.852 225.884,141.553 225.095,140.746 227.250 C 140.489 227.938,140.196 240.423,140.094 254.995 C 139.988 270.217,139.503 281.897,138.955 282.445 C 138.348 283.052,138.000 280.700,138.000 276.002 C 138.000 271.933,137.544 264.980,136.986 260.552 C 136.429 256.123,135.709 246.344,135.388 238.819 C 134.939 228.337,134.505 225.253,133.530 225.627 C 131.423 226.436,130.918 223.311,130.363 206.029 C 129.767 187.456,130.743 175.487,133.874 163.000 C 135.046 158.325,136.268 153.150,136.589 151.500 L 137.172 148.500 138.681 151.371 C 139.511 152.950,140.012 155.769,139.794 157.636 C 139.454 160.554,139.595 160.833,140.806 159.623 C 142.016 158.413,141.996 157.474,140.665 152.933 C 138.982 147.192,139.295 145.907,143.649 140.673 C 146.662 137.051,146.856 134.472,144.000 136.000 C 142.900 136.589,142.000 136.763,142.000 136.387 C 142.000 136.011,144.125 131.832,146.722 127.101 C 152.632 116.337,155.712 109.894,158.007 103.500 C 163.581 87.970,170.493 77.033,178.400 71.229 C 185.746 65.838,196.302 59.000,197.279 59.000 C 197.740 59.000,197.851 58.567,197.524 58.038 C 196.674 56.663,203.732 53.290,217.000 48.731 C 228.493 44.783,228.511 44.780,246.105 44.516 C 256.502 44.359,265.218 43.753,267.395 43.035 C 272.157 41.463,287.215 41.295,293.000 42.750 C 295.475 43.372,303.800 44.192,311.500 44.573 C 321.730 45.078,326.847 45.792,330.500 47.222 C 333.250 48.299,338.875 49.517,343.000 49.928 C 356.038 51.229,364.711 56.450,379.668 72.000 C 388.901 81.599,389.975 82.851,391.106 85.334 C 391.749 86.744,393.179 88.033,394.285 88.198 C 395.391 88.364,396.776 89.400,397.362 90.500 C 397.949 91.600,399.686 94.379,401.223 96.675 C 403.700 100.377,403.818 100.888,402.259 101.189 C 400.568 101.514,402.535 103.273,412.340 110.201 C 414.736 111.895,419.000 118.975,419.000 121.261 C 419.000 121.921,420.556 124.982,422.458 128.064 C 427.371 136.023,428.279 141.110,428.067 159.504 C 427.965 168.306,428.308 176.631,428.828 178.004 C 429.768 180.488,429.777 180.484,430.800 177.000 L 431.828 173.500 431.863 178.500 C 431.883 181.250,432.162 188.675,432.485 195.000 C 432.908 203.298,432.470 212.348,430.912 227.500 C 429.725 239.050,428.561 254.912,428.326 262.750 C 428.090 270.587,427.486 277.000,426.984 277.000 C 424.233 277.000,423.564 271.997,423.558 251.367 C 423.553 234.644,423.286 230.337,422.276 230.724 C 421.044 231.197,420.526 229.451,420.819 225.811 C 420.894 224.883,420.285 222.224,419.466 219.903 C 418.442 217.003,418.162 213.778,418.568 209.591 C 418.987 205.279,418.699 202.222,417.580 199.124 C 416.711 196.718,416.005 193.568,416.012 192.124 C 416.030 188.080,410.837 174.000,409.327 174.000 C 408.597 174.000,408.000 174.441,408.000 174.980 C 408.000 176.340,410.864 183.944,412.593 187.175 C 413.725 189.291,413.782 190.384,412.865 192.396 C 411.967 194.367,411.990 195.283,412.966 196.459 C 413.820 197.489,413.984 199.190,413.474 201.739 C 412.218 208.009,412.947 214.838,415.583 221.500 C 416.258 223.206,416.149 223.317,414.845 222.259 C 411.587 219.614,411.649 222.578,415.120 235.477 C 416.153 239.314,417.708 249.889,418.576 258.977 C 420.582 279.971,422.985 290.474,426.577 293.934 L 429.241 296.500 428.641 291.761 C 427.673 284.112,430.638 279.449,433.940 283.427 C 434.591 284.212,437.196 285.560,439.729 286.423 C 444.905 288.187,448.000 290.577,448.000 292.810 C 448.000 294.087,447.728 294.064,446.171 292.655 C 444.101 290.782,439.814 290.494,436.934 292.035 C 433.526 293.859,434.851 295.000,440.378 295.000 C 443.483 295.000,446.174 295.528,446.748 296.250 C 447.912 297.716,449.140 323.000,448.046 323.000 C 447.638 323.000,446.504 321.227,445.527 319.059 C 443.693 314.992,441.000 312.903,441.000 315.547 C 441.000 316.363,442.317 319.386,443.928 322.265 C 452.815 338.157,453.289 352.441,445.484 369.206 C 444.109 372.160,443.015 376.354,443.010 378.694 C 443.003 381.646,442.333 383.610,440.750 385.324 C 438.451 387.813,431.388 391.000,428.171 391.000 C 424.233 391.000,422.905 393.508,419.423 407.525 C 417.514 415.211,415.462 423.075,414.863 425.000 C 413.362 429.827,406.591 443.271,402.020 450.500 C 398.305 456.375,398.215 456.747,397.690 468.360 C 397.247 478.150,397.473 481.221,398.985 485.952 C 401.953 495.244,403.353 509.925,402.709 524.997 C 402.079 539.729,399.986 550.430,393.028 574.500 C 392.074 577.800,390.578 583.650,389.704 587.500 C 388.830 591.350,385.600 605.525,382.526 619.000 C 375.681 649.000,373.681 658.050,371.473 669.000 C 370.530 673.675,368.977 680.650,368.021 684.500 C 367.065 688.350,365.488 695.100,364.517 699.500 C 362.478 708.734,359.705 720.275,356.945 731.000 C 355.884 735.125,354.081 742.550,352.938 747.500 C 351.796 752.450,349.497 761.000,347.830 766.500 C 341.852 786.220,341.172 788.564,340.094 793.193 C 338.565 799.752,338.634 800.000,342.000 800.000 C 344.751 800.000,345.000 799.715,345.000 796.565 C 345.000 794.676,345.495 791.863,346.100 790.315 C 347.625 786.411,351.948 772.524,353.514 766.500 C 360.070 741.281,361.926 733.654,362.542 729.416 C 362.934 726.712,363.636 723.764,364.102 722.865 C 364.567 721.965,366.769 713.190,368.994 703.365 C 371.219 693.539,373.909 681.900,374.970 677.500 C 377.051 668.873,379.910 655.982,382.399 644.000 C 384.250 635.090,390.230 608.165,393.171 595.500 C 394.321 590.550,396.303 582.900,397.577 578.500 C 404.515 554.541,407.983 533.928,408.045 516.295 C 408.085 504.704,408.230 503.688,409.586 505.500 C 413.560 510.809,416.233 515.084,419.591 521.500 C 424.539 530.952,428.665 535.967,432.936 537.722 C 434.896 538.527,437.738 540.353,439.250 541.780 C 440.762 543.207,442.000 543.840,442.000 543.187 C 442.000 541.352,444.525 541.765,450.255 544.538 C 453.140 545.935,457.039 547.325,458.921 547.627 C 460.802 547.930,463.277 548.778,464.421 549.511 C 466.531 550.864,482.427 557.212,487.000 558.527 C 488.375 558.923,492.425 560.603,496.000 562.261 C 499.575 563.919,505.425 566.358,509.000 567.681 C 512.575 569.004,520.675 572.279,527.000 574.959 C 533.325 577.639,542.325 581.412,547.000 583.343 C 551.675 585.274,559.918 588.710,565.317 590.977 C 579.093 596.763,578.641 596.575,587.500 600.215 C 594.184 602.962,595.453 603.844,595.217 605.575 C 595.061 606.715,595.370 608.739,595.904 610.074 C 596.764 612.228,596.880 612.023,596.937 608.250 C 596.983 605.167,597.412 604.000,598.500 604.000 C 599.500 604.000,600.000 603.000,600.000 601.000 C 600.000 598.771,599.534 598.000,598.190 598.000 C 597.194 598.000,593.706 596.914,590.440 595.588 C 577.696 590.411,566.972 585.966,554.500 580.690 C 547.350 577.665,532.725 571.531,522.000 567.059 C 511.275 562.587,500.025 557.849,497.000 556.530 C 493.975 555.210,488.350 552.955,484.500 551.517 C 480.650 550.079,473.900 547.545,469.500 545.885 C 465.100 544.226,457.675 541.512,453.000 539.854 C 434.682 533.359,431.045 531.354,427.500 525.793 C 425.850 523.204,422.025 516.953,419.000 511.901 C 413.400 502.550,409.863 496.887,404.821 489.200 C 402.091 485.039,402.000 484.479,402.000 471.884 L 402.000 458.869 406.791 450.684 C 416.609 433.911,420.209 424.905,423.488 408.911 C 425.716 398.042,427.204 395.372,431.479 394.570 C 436.484 393.631,444.400 388.613,445.831 385.471 C 446.474 384.060,447.020 381.465,447.044 379.703 C 447.068 377.941,447.704 374.925,448.458 373.000 C 455.230 355.702,455.142 356.087,454.683 345.539 C 454.443 340.017,453.768 333.250,453.183 330.500 C 452.598 327.750,452.092 317.842,452.060 308.482 C 452.002 292.086,451.910 291.332,449.532 287.833 C 447.593 284.979,445.982 283.924,442.011 282.906 C 433.690 280.773,433.487 280.262,433.586 261.638 C 433.641 251.345,434.268 242.240,435.316 236.500 C 437.543 224.307,438.512 191.429,437.039 178.000 C 436.406 172.225,435.295 161.425,434.570 154.000 C 433.208 140.044,432.049 135.722,427.098 126.132 C 425.499 123.034,422.496 116.900,420.425 112.500 C 418.026 107.401,414.621 102.324,411.036 98.500 C 407.942 95.200,404.227 90.700,402.781 88.500 C 401.334 86.300,397.867 82.102,395.075 79.172 C 392.284 76.241,390.000 73.242,390.000 72.507 C 390.000 71.771,388.559 69.894,386.798 68.335 C 385.037 66.776,380.789 62.735,377.358 59.355 C 373.277 55.336,369.456 52.604,366.310 51.455 C 363.664 50.490,358.800 48.712,355.500 47.505 C 346.829 44.335,328.312 41.199,302.500 38.531 C 286.291 36.856,276.095 36.737,269.000 38.141 M243.333 47.667 C 243.700 48.033,244.300 48.033,244.667 47.667 C 245.033 47.300,244.733 47.000,244.000 47.000 C 243.267 47.000,242.967 47.300,243.333 47.667 M317.250 48.197 C 315.462 48.670,314.000 49.494,314.000 50.029 C 314.000 50.563,312.800 51.000,311.333 51.000 C 307.543 51.000,309.230 52.207,313.564 52.596 C 315.720 52.790,318.190 52.266,319.657 51.305 C 321.014 50.416,324.098 49.646,326.511 49.594 C 328.925 49.542,330.584 49.217,330.200 48.872 C 328.950 47.750,320.586 47.314,317.250 48.197 M238.000 49.000 C 236.172 50.181,237.751 50.181,240.500 49.000 C 241.819 48.433,241.989 48.122,241.000 48.086 C 240.175 48.055,238.825 48.467,238.000 49.000 M263.750 50.662 C 264.438 50.940,265.563 50.940,266.250 50.662 C 266.938 50.385,266.375 50.158,265.000 50.158 C 263.625 50.158,263.063 50.385,263.750 50.662 M248.500 53.000 C 246.814 53.724,247.001 53.870,249.691 53.930 C 251.446 53.968,253.160 53.550,253.500 53.000 C 254.241 51.801,251.291 51.801,248.500 53.000 M291.000 54.000 C 291.000 54.550,292.098 55.000,293.441 55.000 C 294.784 55.000,296.160 54.550,296.500 54.000 C 296.861 53.417,295.844 53.000,294.059 53.000 C 292.377 53.000,291.000 53.450,291.000 54.000 M219.813 54.683 C 220.534 54.972,221.397 54.936,221.729 54.604 C 222.061 54.272,221.471 54.036,220.417 54.079 C 219.252 54.127,219.015 54.364,219.813 54.683 M252.000 58.905 C 250.075 59.904,246.546 61.021,244.158 61.387 C 239.098 62.163,230.686 66.215,233.060 66.733 C 233.918 66.920,237.293 66.348,240.560 65.461 C 243.827 64.575,252.520 63.592,259.878 63.278 C 271.636 62.776,273.368 62.906,274.178 64.353 C 274.906 65.654,276.675 66.000,282.590 66.000 C 288.223 66.000,291.099 66.520,294.193 68.098 C 300.043 71.083,305.729 73.034,311.500 74.037 C 314.250 74.515,319.113 75.426,322.307 76.062 C 328.583 77.312,329.373 77.135,328.435 74.691 C 327.614 72.552,323.211 71.239,313.000 70.087 C 305.026 69.188,299.165 67.507,294.500 64.781 C 293.400 64.138,288.414 63.424,283.421 63.194 C 275.883 62.847,274.141 62.456,273.162 60.888 C 272.370 59.620,272.333 59.000,273.051 59.000 C 273.638 59.000,273.840 58.550,273.500 58.000 C 272.380 56.187,255.899 56.881,252.000 58.905 M228.000 58.500 C 228.000 58.775,228.225 59.000,228.500 59.000 C 228.775 59.000,229.000 58.775,229.000 58.500 C 229.000 58.225,228.775 58.000,228.500 58.000 C 228.225 58.000,228.000 58.225,228.000 58.500 M339.570 61.886 C 338.912 62.952,342.324 63.968,346.628 63.986 C 348.348 63.994,351.273 64.621,353.128 65.380 C 358.679 67.652,361.000 68.188,361.000 67.197 C 361.000 65.903,346.878 61.000,343.152 61.000 C 341.483 61.000,339.872 61.399,339.570 61.886 M372.000 62.500 C 372.000 62.775,371.775 63.000,371.500 63.000 C 371.225 63.000,371.000 62.775,371.000 62.500 C 371.000 62.225,371.225 62.000,371.500 62.000 C 371.775 62.000,372.000 62.225,372.000 62.500 M249.500 69.946 C 247.644 70.693,247.680 70.778,250.000 71.125 C 254.313 71.772,265.039 70.872,264.447 69.914 C 263.759 68.801,252.283 68.825,249.500 69.946 M330.531 71.950 C 329.745 73.222,333.469 75.141,335.334 74.425 C 336.148 74.113,338.896 74.565,341.442 75.429 C 346.514 77.151,350.984 77.539,349.450 76.123 C 347.983 74.769,336.289 71.000,333.555 71.000 C 332.215 71.000,330.854 71.427,330.531 71.950 M372.079 74.583 C 372.127 75.748,372.364 75.985,372.683 75.188 C 372.972 74.466,372.936 73.603,372.604 73.271 C 372.272 72.939,372.036 73.529,372.079 74.583 M233.000 74.500 C 233.000 74.775,233.225 75.000,233.500 75.000 C 233.775 75.000,234.000 74.775,234.000 74.500 C 234.000 74.225,233.775 74.000,233.500 74.000 C 233.225 74.000,233.000 74.225,233.000 74.500 M237.264 74.718 C 238.784 74.947,241.034 74.941,242.264 74.704 C 243.494 74.467,242.250 74.279,239.500 74.286 C 236.750 74.294,235.744 74.488,237.264 74.718 M293.000 77.000 C 291.865 77.734,292.305 77.973,294.809 77.985 C 296.764 77.994,297.865 77.591,297.500 77.000 C 296.724 75.744,294.944 75.744,293.000 77.000 M261.750 79.662 C 262.438 79.940,263.563 79.940,264.250 79.662 C 264.938 79.385,264.375 79.158,263.000 79.158 C 261.625 79.158,261.063 79.385,261.750 79.662 M266.500 81.000 C 266.840 81.550,266.472 82.000,265.681 82.000 C 264.891 82.000,263.685 82.675,263.000 83.500 C 261.893 84.834,262.153 84.834,265.345 83.500 C 269.821 81.630,277.236 81.564,280.800 83.363 C 283.390 84.670,316.000 86.548,316.000 85.390 C 316.000 85.119,314.439 84.246,312.532 83.449 C 310.065 82.418,305.031 82.000,295.091 82.000 C 286.854 82.000,280.864 81.589,280.500 81.000 C 280.160 80.450,276.732 80.000,272.882 80.000 C 268.470 80.000,266.110 80.370,266.500 81.000 M177.079 83.583 C 177.127 84.748,177.364 84.985,177.683 84.188 C 177.972 83.466,177.936 82.603,177.604 82.271 C 177.272 81.939,177.036 82.529,177.079 83.583 M353.500 84.000 C 353.840 84.550,354.316 85.000,354.559 85.000 C 354.802 85.000,355.000 84.550,355.000 84.000 C 355.000 83.450,354.523 83.000,353.941 83.000 C 353.359 83.000,353.160 83.450,353.500 84.000 M376.500 84.000 C 375.771 85.180,376.717 87.000,378.059 87.000 C 378.577 87.000,379.000 86.100,379.000 85.000 C 379.000 82.891,377.545 82.309,376.500 84.000 M270.750 90.160 C 265.561 92.449,264.350 94.586,268.750 93.690 C 273.031 92.818,279.000 90.079,279.000 88.987 C 279.000 87.441,275.924 87.878,270.750 90.160 M328.730 90.091 C 327.756 90.658,326.086 90.845,325.018 90.506 C 323.949 90.167,322.131 90.395,320.977 91.013 C 319.513 91.796,317.508 91.844,314.350 91.170 C 310.757 90.404,307.109 90.703,296.661 92.621 C 281.854 95.340,275.612 97.189,272.084 99.901 L 269.669 101.758 273.750 102.148 C 275.995 102.362,277.632 102.213,277.387 101.817 C 276.243 99.966,306.838 94.313,314.809 94.903 C 315.529 94.956,315.840 95.450,315.500 96.000 C 314.569 97.507,317.273 97.213,324.229 95.050 C 327.678 93.978,332.750 92.795,335.500 92.422 L 340.500 91.743 337.000 90.448 C 332.671 88.845,330.994 88.773,328.730 90.091 M373.000 91.000 C 370.889 93.111,370.312 96.000,372.000 96.000 C 372.550 96.000,373.000 95.467,373.000 94.814 C 373.000 94.162,373.978 92.587,375.174 91.314 C 377.829 88.489,375.804 88.196,373.000 91.000 M386.150 90.668 C 386.067 91.861,385.709 93.661,385.353 94.668 C 384.855 96.077,384.989 96.239,385.931 95.372 C 386.605 94.751,386.964 92.951,386.728 91.372 C 386.426 89.348,386.255 89.141,386.150 90.668 M173.000 95.409 C 173.000 95.599,173.675 96.315,174.500 97.000 C 175.365 97.718,176.000 97.815,176.000 97.229 C 176.000 96.671,175.325 95.955,174.500 95.638 C 173.675 95.322,173.000 95.219,173.000 95.409 M342.083 97.408 C 343.022 98.328,354.000 101.637,354.000 101.000 C 354.000 99.028,349.946 97.000,346.005 97.000 C 343.619 97.000,341.854 97.184,342.083 97.408 M188.200 101.250 C 190.103 104.214,197.635 108.015,201.462 107.942 C 204.257 107.889,204.077 107.693,199.208 105.480 C 196.297 104.158,192.627 102.159,191.053 101.038 C 187.332 98.388,186.408 98.457,188.200 101.250 M362.500 99.956 C 359.511 100.673,359.509 100.678,362.000 101.277 C 371.631 103.596,380.012 102.486,371.250 100.053 C 367.142 98.912,366.868 98.909,362.500 99.956 M329.661 100.998 C 330.849 101.477,334.214 102.580,337.139 103.449 C 341.377 104.707,342.156 104.747,340.978 103.645 C 339.054 101.845,333.398 99.983,330.101 100.063 C 327.625 100.124,327.604 100.169,329.661 100.998 M289.250 103.031 C 288.012 103.529,287.000 104.175,287.000 104.468 C 287.000 105.624,292.732 104.914,294.559 103.532 C 296.432 102.115,296.412 102.065,294.000 102.095 C 292.625 102.113,290.488 102.534,289.250 103.031 M300.115 106.467 C 296.054 108.410,292.116 110.000,291.365 110.000 C 290.614 110.000,290.000 110.450,290.000 111.000 C 290.000 111.550,287.498 112.000,284.441 112.000 C 280.990 112.000,279.116 112.379,279.500 113.000 C 280.262 114.233,287.396 114.319,289.764 113.123 C 290.719 112.640,295.533 111.006,300.462 109.492 C 308.338 107.072,310.422 106.814,317.650 107.370 C 327.029 108.091,330.067 109.037,334.216 112.528 C 335.832 113.888,338.357 115.270,339.827 115.599 C 341.297 115.928,346.731 117.728,351.902 119.599 C 361.722 123.152,366.595 124.057,361.750 121.428 C 360.238 120.607,359.000 119.584,359.000 119.153 C 359.000 117.657,351.914 115.005,344.754 113.822 C 338.895 112.855,337.051 112.085,334.867 109.694 C 331.723 106.251,324.810 104.120,314.500 103.414 C 308.046 102.972,306.924 103.210,300.115 106.467 M349.500 108.449 C 353.350 110.360,356.950 111.930,357.500 111.939 C 359.535 111.973,353.483 108.162,349.704 107.029 C 342.486 104.867,342.473 104.963,349.500 108.449 M384.333 107.667 C 384.700 108.033,385.300 108.033,385.667 107.667 C 386.033 107.300,385.733 107.000,385.000 107.000 C 384.267 107.000,383.967 107.300,384.333 107.667 M266.518 108.971 C 266.188 109.505,267.062 110.180,268.459 110.471 C 269.857 110.762,272.089 111.225,273.421 111.499 C 274.752 111.774,276.596 111.708,277.519 111.354 C 278.774 110.873,278.226 110.372,275.349 109.370 C 270.787 107.782,267.349 107.626,266.518 108.971 M237.578 109.907 C 234.870 110.233,232.507 110.950,232.326 111.500 C 231.972 112.578,250.791 112.451,257.000 111.334 C 260.346 110.732,260.390 110.671,258.000 109.952 C 255.092 109.076,244.663 109.054,237.578 109.907 M380.441 114.562 C 381.509 115.353,383.496 116.000,384.858 116.000 C 388.222 116.000,386.985 115.009,382.329 113.974 C 378.863 113.204,378.684 113.260,380.441 114.562 M309.311 116.022 C 301.268 116.831,301.826 118.000,310.254 118.000 C 314.428 118.000,321.590 118.857,326.171 119.904 C 336.860 122.347,346.356 123.385,345.510 122.017 C 345.165 121.458,344.235 121.000,343.445 121.000 C 342.655 121.000,339.398 120.097,336.209 118.993 C 329.498 116.671,316.803 115.268,309.311 116.022 M242.000 119.000 C 242.000 120.253,243.061 120.253,245.000 119.000 C 246.213 118.216,246.069 118.028,244.250 118.015 C 243.012 118.007,242.000 118.450,242.000 119.000 M261.330 118.725 C 261.676 119.284,263.304 120.011,264.948 120.340 C 266.592 120.668,268.959 121.959,270.207 123.207 C 273.578 126.578,270.886 126.640,260.945 123.422 C 253.586 121.040,252.537 120.913,251.534 122.284 C 250.913 123.133,249.077 124.006,247.453 124.224 C 244.918 124.563,244.766 124.739,246.382 125.467 C 247.515 125.978,248.955 125.884,249.999 125.233 C 251.961 124.007,255.340 124.658,264.500 128.029 C 267.810 129.247,275.821 130.830,282.370 131.561 C 288.898 132.290,295.690 133.574,297.464 134.416 C 299.237 135.257,303.346 136.189,306.594 136.487 L 312.500 137.028 306.215 135.146 C 298.981 132.979,297.999 132.321,300.544 131.345 C 302.741 130.502,333.966 135.566,335.397 136.997 C 336.068 137.668,333.570 138.000,327.867 138.000 C 323.173 138.000,319.013 138.320,318.621 138.712 C 318.230 139.104,312.192 139.334,305.205 139.225 C 295.281 139.069,293.047 139.265,295.000 140.119 C 298.672 141.726,324.395 141.696,330.889 140.077 C 338.635 138.146,352.216 139.360,363.637 143.004 C 368.662 144.608,375.610 146.377,379.077 146.935 C 383.245 147.606,387.314 149.144,391.090 151.475 C 394.232 153.414,397.472 155.000,398.293 155.000 C 399.113 155.000,401.976 156.912,404.656 159.250 C 407.336 161.588,410.410 163.992,411.488 164.593 C 412.671 165.252,413.507 166.854,413.597 168.632 C 413.678 170.253,414.730 173.510,415.934 175.870 C 417.137 178.229,418.733 183.933,419.480 188.544 C 420.226 193.156,421.455 197.812,422.211 198.891 C 423.396 200.583,423.537 198.694,423.232 185.177 C 422.856 168.508,421.932 164.000,418.893 164.000 C 417.854 164.000,415.908 162.338,414.500 160.250 C 413.110 158.188,410.370 155.375,408.411 154.000 C 406.453 152.625,402.916 150.084,400.551 148.352 C 393.814 143.421,392.256 142.823,381.040 140.863 C 375.243 139.851,370.275 138.966,370.000 138.896 C 368.591 138.541,378.140 137.107,382.250 137.058 C 384.863 137.026,387.000 136.550,387.000 136.000 C 387.000 134.848,387.262 134.879,375.752 134.656 C 370.941 134.563,366.882 134.853,366.733 135.300 C 366.584 135.748,364.446 135.606,361.981 134.986 C 359.516 134.366,351.284 133.502,343.687 133.066 C 334.767 132.555,329.454 131.826,328.687 131.009 C 327.733 129.992,329.167 129.866,336.000 130.368 C 342.249 130.827,346.294 130.559,351.275 129.355 C 355.002 128.454,357.804 127.471,357.502 127.169 C 357.201 126.867,347.960 126.594,336.966 126.560 C 320.375 126.510,317.068 126.734,317.507 127.879 C 317.916 128.944,317.322 129.114,314.893 128.629 C 313.164 128.283,309.256 128.000,306.208 128.000 C 300.351 128.000,300.103 127.254,305.322 125.326 L 308.500 124.152 305.500 124.120 C 302.214 124.085,294.276 126.017,292.174 127.362 C 288.752 129.554,274.956 125.813,269.000 121.078 C 266.224 118.870,260.296 117.052,261.330 118.725 M170.269 120.693 C 171.242 120.947,172.592 120.930,173.269 120.656 C 173.946 120.382,173.150 120.175,171.500 120.195 C 169.850 120.215,169.296 120.439,170.269 120.693 M217.000 121.500 C 217.000 121.775,217.225 122.000,217.500 122.000 C 217.775 122.000,218.000 121.775,218.000 121.500 C 218.000 121.225,217.775 121.000,217.500 121.000 C 217.225 121.000,217.000 121.225,217.000 121.500 M213.813 122.683 C 214.534 122.972,215.397 122.936,215.729 122.604 C 216.061 122.272,215.471 122.036,214.417 122.079 C 213.252 122.127,213.015 122.364,213.813 122.683 M232.500 123.000 C 231.400 123.473,228.475 123.909,226.000 123.969 C 221.291 124.083,204.871 131.374,204.231 133.635 C 203.850 134.984,215.065 132.164,221.968 129.175 C 224.460 128.096,228.434 126.412,230.798 125.433 C 233.162 124.454,235.326 123.281,235.607 122.826 C 236.237 121.808,235.131 121.869,232.500 123.000 M403.885 127.250 C 403.822 127.938,403.856 129.326,403.962 130.336 C 404.068 131.345,403.375 133.033,402.422 134.086 C 401.078 135.571,401.005 135.997,402.095 135.985 C 405.084 135.952,406.500 134.040,406.500 130.036 C 406.500 127.476,406.043 126.002,405.250 126.001 C 404.563 126.001,403.948 126.563,403.885 127.250 M199.492 129.595 C 196.746 131.023,192.700 134.093,190.500 136.417 C 187.954 139.108,184.592 141.326,181.250 142.520 C 177.663 143.801,176.000 144.943,176.000 146.125 C 176.000 147.947,171.556 152.000,169.558 152.000 C 168.913 152.000,167.594 153.912,166.627 156.250 C 165.661 158.588,164.180 161.769,163.338 163.319 C 160.649 168.265,162.996 167.659,167.707 162.192 C 170.951 158.426,174.317 155.905,179.383 153.445 C 183.297 151.545,188.942 148.517,191.926 146.718 C 198.483 142.764,200.276 139.604,193.871 143.289 C 189.633 145.727,183.000 147.743,183.000 146.592 C 183.000 146.280,184.787 144.897,186.972 143.518 C 189.156 142.139,191.605 139.731,192.414 138.167 C 193.222 136.603,196.385 133.601,199.442 131.495 C 204.337 128.124,205.662 127.000,204.742 127.000 C 204.600 127.000,202.238 128.168,199.492 129.595 M251.000 130.549 C 251.000 131.698,259.645 134.957,262.750 134.978 C 268.034 135.014,266.482 133.567,259.250 131.713 C 251.959 129.845,251.000 129.709,251.000 130.549 M419.855 135.000 C 419.238 138.496,419.494 139.840,420.571 138.763 C 420.884 138.449,420.991 136.687,420.807 134.846 L 420.473 131.500 419.855 135.000 M218.500 136.969 C 216.300 138.028,213.150 140.046,211.500 141.452 C 208.870 143.694,209.393 143.566,215.750 140.407 C 219.738 138.425,223.000 136.398,223.000 135.902 C 223.000 134.754,223.201 134.707,218.500 136.969 M271.441 136.430 C 273.679 138.240,290.439 138.716,291.500 137.000 C 291.888 136.373,289.724 136.000,285.699 136.000 C 282.168 136.000,277.079 135.743,274.390 135.430 C 269.829 134.898,269.631 134.965,271.441 136.430 M403.500 142.247 C 406.161 144.182,410.052 144.980,412.434 144.077 C 415.099 143.068,413.364 142.239,406.943 141.456 C 402.017 140.855,401.690 140.930,403.500 142.247 M277.000 143.383 C 277.000 143.594,278.111 143.979,279.470 144.239 C 280.828 144.499,281.702 144.326,281.411 143.856 C 280.899 143.027,277.000 142.610,277.000 143.383 M199.000 146.500 C 199.000 146.775,199.225 147.000,199.500 147.000 C 199.775 147.000,200.000 146.775,200.000 146.500 C 200.000 146.225,199.775 146.000,199.500 146.000 C 199.225 146.000,199.000 146.225,199.000 146.500 M153.344 153.750 C 144.985 161.587,144.612 162.543,144.418 176.639 C 144.325 183.437,144.642 189.000,145.124 189.000 C 145.606 189.000,146.000 187.880,146.000 186.511 C 146.000 185.142,146.900 181.654,147.999 178.761 C 150.173 173.042,150.579 168.476,149.000 167.500 C 146.774 166.124,147.984 160.914,151.276 157.699 C 155.440 153.634,159.490 149.000,158.879 149.000 C 158.621 149.000,156.130 151.137,153.344 153.750 M146.000 153.500 C 146.000 153.775,146.225 154.000,146.500 154.000 C 146.775 154.000,147.000 153.775,147.000 153.500 C 147.000 153.225,146.775 153.000,146.500 153.000 C 146.225 153.000,146.000 153.225,146.000 153.500 M410.000 167.000 C 410.000 167.550,410.477 168.000,411.059 168.000 C 411.641 168.000,411.840 167.550,411.500 167.000 C 411.160 166.450,410.684 166.000,410.441 166.000 C 410.198 166.000,410.000 166.450,410.000 167.000 M418.554 169.442 C 419.434 170.785,419.993 172.923,419.795 174.192 C 419.478 176.230,419.176 176.007,417.218 172.290 C 414.722 167.553,414.593 167.000,415.977 167.000 C 416.514 167.000,417.674 168.099,418.554 169.442 M141.180 172.283 C 139.420 174.404,136.046 182.320,136.022 184.385 C 136.003 186.046,136.219 185.986,137.844 183.885 C 139.978 181.126,143.528 172.195,142.787 171.454 C 142.511 171.178,141.788 171.551,141.180 172.283 M429.252 188.500 C 429.263 190.700,429.468 191.482,429.707 190.238 C 429.946 188.994,429.937 187.194,429.687 186.238 C 429.437 185.282,429.241 186.300,429.252 188.500 M145.000 192.000 C 145.000 192.733,145.300 193.033,145.667 192.667 C 146.033 192.300,146.033 191.700,145.667 191.333 C 145.300 190.967,145.000 191.267,145.000 192.000 M139.000 192.500 C 139.000 192.775,139.225 193.000,139.500 193.000 C 139.775 193.000,140.000 192.775,140.000 192.500 C 140.000 192.225,139.775 192.000,139.500 192.000 C 139.225 192.000,139.000 192.225,139.000 192.500 M140.068 196.950 C 140.016 199.580,140.278 200.122,141.167 199.233 C 142.031 198.369,142.048 197.470,141.235 195.783 C 140.202 193.639,140.131 193.710,140.068 196.950 M424.000 215.500 C 424.000 215.775,424.225 216.000,424.500 216.000 C 424.775 216.000,425.000 215.775,425.000 215.500 C 425.000 215.225,424.775 215.000,424.500 215.000 C 424.225 215.000,424.000 215.225,424.000 215.500 M150.000 216.500 C 150.000 216.775,149.775 217.000,149.500 217.000 C 149.225 217.000,149.000 216.775,149.000 216.500 C 149.000 216.225,149.225 216.000,149.500 216.000 C 149.775 216.000,150.000 216.225,150.000 216.500 M147.290 224.000 C 147.002 225.100,146.594 226.000,146.383 226.000 C 146.173 226.000,146.000 225.100,146.000 224.000 C 146.000 222.900,146.408 222.000,146.906 222.000 C 147.405 222.000,147.577 222.900,147.290 224.000 M376.000 242.845 C 376.000 243.773,378.644 246.235,381.000 247.503 C 381.825 247.946,381.178 246.890,379.563 245.155 C 376.434 241.794,376.000 241.513,376.000 242.845 M322.441 247.439 C 320.720 248.714,321.579 248.815,330.000 248.331 C 335.225 248.030,342.650 247.441,346.500 247.022 C 352.549 246.363,351.521 246.242,338.941 246.130 C 327.684 246.029,323.942 246.326,322.441 247.439 M365.500 250.057 C 363.300 250.512,354.694 250.911,346.376 250.942 C 335.498 250.984,330.037 251.429,326.925 252.526 C 322.563 254.066,319.000 256.596,319.000 258.155 C 319.000 259.526,339.821 259.053,348.500 257.485 C 357.954 255.777,363.418 255.643,369.236 256.979 C 376.152 258.567,388.395 259.797,389.810 259.047 C 391.501 258.151,383.558 255.703,381.206 256.395 C 380.268 256.671,376.800 256.327,373.500 255.632 L 367.500 254.366 371.194 253.003 C 374.498 251.783,374.709 251.503,373.194 250.351 C 371.297 248.909,371.090 248.901,365.500 250.057 M179.497 251.250 C 179.736 251.938,178.489 253.406,176.727 254.513 C 174.964 255.621,173.371 257.313,173.186 258.274 C 172.885 259.836,173.254 259.791,176.675 257.842 C 181.076 255.334,185.000 252.027,185.000 250.826 C 185.000 250.372,183.664 250.000,182.031 250.000 C 180.092 250.000,179.213 250.433,179.497 251.250 M190.443 252.418 C 189.376 253.198,188.778 254.111,189.113 254.446 C 189.983 255.316,195.000 253.252,195.000 252.025 C 195.000 250.562,192.711 250.759,190.443 252.418 M231.866 252.632 C 233.718 253.440,235.505 253.829,235.837 253.496 C 236.796 252.538,233.744 251.024,231.000 251.097 C 228.694 251.158,228.762 251.277,231.866 252.632 M212.000 252.958 C 203.290 253.509,197.000 255.227,197.000 257.054 C 197.000 258.186,199.794 258.996,203.832 259.035 C 205.849 259.054,210.425 259.714,214.000 260.500 C 217.575 261.286,223.338 261.946,226.807 261.965 C 234.998 262.010,241.795 263.733,245.327 266.659 C 246.881 267.946,248.681 268.984,249.327 268.964 C 250.968 268.914,245.390 264.382,240.000 261.386 C 230.597 256.161,227.000 253.820,227.000 252.925 C 227.000 252.416,225.762 252.080,224.250 252.178 C 222.738 252.276,217.225 252.627,212.000 252.958 M240.572 254.972 C 242.732 256.607,245.296 257.957,246.270 257.972 C 247.243 257.987,249.822 259.125,252.000 260.500 C 256.654 263.438,257.144 263.538,256.317 261.385 C 255.741 259.882,240.123 252.000,237.722 252.000 C 237.129 252.000,238.411 253.337,240.572 254.972 M306.750 256.080 C 304.384 257.458,304.529 258.936,306.967 258.298 C 309.509 257.634,311.863 254.986,309.872 255.030 C 309.118 255.047,307.712 255.519,306.750 256.080 M165.232 259.000 C 164.545 260.100,164.367 261.000,164.837 261.000 C 165.306 261.000,166.505 260.100,167.500 259.000 C 168.891 257.462,168.983 257.000,167.896 257.000 C 167.118 257.000,165.919 257.900,165.232 259.000 M342.760 265.558 C 335.208 267.388,329.783 270.237,324.401 275.198 C 317.043 281.980,319.213 283.365,327.408 277.118 C 333.961 272.122,337.203 270.520,344.689 268.581 C 352.517 266.552,356.654 266.588,364.172 268.750 C 368.461 269.983,371.621 271.751,374.878 274.739 C 377.420 277.071,379.950 278.967,380.500 278.952 C 381.050 278.937,379.700 277.334,377.500 275.389 C 374.081 272.367,373.863 271.955,376.000 272.553 C 377.375 272.938,379.779 273.905,381.343 274.700 C 382.907 275.496,384.414 275.919,384.693 275.640 C 386.650 273.683,375.150 267.425,366.099 265.521 C 357.378 263.686,350.437 263.697,342.760 265.558 M163.405 267.250 L 161.500 269.500 163.750 267.595 C 164.988 266.547,166.000 265.535,166.000 265.345 C 166.000 264.545,165.195 265.136,163.405 267.250 M206.500 267.635 C 205.400 267.857,201.800 268.534,198.500 269.140 C 193.167 270.118,181.039 276.373,182.208 277.542 C 183.623 278.956,188.982 278.012,192.238 275.775 C 197.169 272.386,209.618 269.622,215.997 270.500 C 230.374 272.477,235.975 276.233,251.326 294.194 L 254.152 297.500 253.508 294.500 C 251.777 286.441,242.329 276.548,231.500 271.456 C 224.495 268.162,212.772 266.370,206.500 267.635 M344.256 276.924 C 342.472 277.376,340.272 278.359,339.367 279.110 C 338.462 279.861,336.670 280.338,335.384 280.169 C 333.957 279.982,329.917 281.738,325.023 284.671 C 317.279 289.312,317.000 289.609,317.000 293.220 C 317.000 297.617,316.953 297.600,331.000 298.459 C 336.225 298.778,342.075 299.313,344.000 299.647 C 345.925 299.982,347.154 299.889,346.731 299.442 C 344.934 297.542,338.011 295.669,331.500 295.322 C 322.513 294.844,320.000 294.266,320.000 292.676 C 320.000 291.455,333.940 283.000,335.953 283.000 C 336.478 283.000,337.754 284.913,338.791 287.250 C 341.269 292.841,343.099 294.207,348.846 294.759 C 353.221 295.180,353.938 294.924,357.311 291.743 C 359.411 289.762,361.274 286.882,361.640 285.048 C 362.400 281.249,364.401 280.166,366.787 282.262 C 369.331 284.496,380.027 289.307,380.778 288.555 C 382.076 287.258,379.162 284.426,372.864 280.860 C 367.080 277.585,365.481 277.163,356.967 276.661 C 351.760 276.354,346.040 276.473,344.256 276.924 M199.444 279.917 C 194.830 280.674,187.596 284.636,184.217 288.255 C 182.396 290.204,182.195 290.917,183.225 291.772 C 184.189 292.572,186.354 291.695,191.756 288.314 C 199.183 283.666,202.000 283.310,202.000 287.018 C 202.000 292.860,207.537 298.000,213.830 298.000 C 218.724 298.000,222.250 295.331,224.376 290.019 C 225.260 287.808,226.499 286.000,227.129 286.000 C 229.517 286.000,242.113 295.202,244.258 298.514 C 246.973 302.706,248.000 302.903,248.000 299.233 C 248.000 292.843,233.848 282.743,221.201 280.105 C 215.514 278.919,206.016 278.837,199.444 279.917 M354.823 281.678 C 354.462 283.552,349.875 285.159,348.071 284.044 C 347.202 283.507,347.236 283.062,348.203 282.296 C 351.416 279.751,355.264 279.392,354.823 281.678 M221.000 284.800 C 221.000 286.306,218.601 288.000,216.467 288.000 C 213.645 288.000,212.761 286.993,214.131 285.342 C 215.321 283.909,221.000 283.460,221.000 284.800 M209.000 287.492 C 209.000 288.900,209.869 290.526,211.000 291.232 C 212.100 291.919,213.000 292.823,213.000 293.241 C 213.000 294.635,211.022 294.022,209.000 292.000 C 206.935 289.935,206.230 285.000,208.000 285.000 C 208.550 285.000,209.000 286.121,209.000 287.492 M255.738 292.616 C 254.420 294.748,253.714 304.705,254.831 305.396 C 256.485 306.418,258.354 298.225,257.303 294.560 C 256.799 292.805,256.133 291.977,255.738 292.616 M365.500 295.247 C 363.300 295.794,359.925 296.837,358.000 297.565 C 354.618 298.844,354.736 298.878,361.500 298.589 C 368.567 298.287,373.257 297.011,374.462 295.062 C 375.263 293.765,371.116 293.851,365.500 295.247 M234.588 296.857 C 234.297 297.328,231.677 297.960,228.766 298.260 C 223.306 298.824,216.000 301.688,216.000 303.265 C 216.000 303.757,217.238 303.924,218.750 303.638 C 227.207 302.035,239.378 300.878,241.688 301.458 C 244.005 302.039,244.184 301.926,243.069 300.584 C 242.020 299.319,236.470 296.000,235.405 296.000 C 235.247 296.000,234.880 296.386,234.588 296.857 M427.321 303.358 C 427.996 308.388,429.465 309.774,435.274 310.859 C 439.117 311.577,440.000 311.475,440.000 310.312 C 440.000 309.525,439.663 309.088,439.250 309.340 C 438.837 309.591,436.925 309.054,435.000 308.145 C 432.056 306.756,431.451 305.909,431.194 302.813 C 430.944 299.810,430.511 299.161,428.841 299.287 C 427.056 299.421,426.863 299.939,427.321 303.358 M196.621 302.546 C 196.355 303.238,196.407 304.073,196.736 304.402 C 197.716 305.383,210.377 305.049,212.000 304.000 C 213.110 303.282,212.461 303.015,209.500 302.972 C 207.300 302.939,203.611 302.547,201.302 302.100 C 198.232 301.506,196.974 301.626,196.621 302.546 M331.000 302.956 C 330.175 303.513,327.947 303.976,326.050 303.985 C 321.513 304.005,323.222 305.587,328.753 306.485 C 332.526 307.099,332.930 306.981,332.339 305.440 C 331.772 303.962,332.106 303.798,334.586 304.334 C 337.577 304.981,355.774 306.955,361.964 307.305 C 364.657 307.457,365.514 307.076,365.817 305.596 C 366.179 303.825,365.715 303.734,359.134 304.286 C 355.245 304.612,350.775 304.509,349.201 304.058 C 344.075 302.587,332.576 301.891,331.000 302.956 M218.667 307.667 C 216.791 309.542,218.823 310.049,227.169 309.788 C 233.401 309.592,236.471 309.100,236.752 308.250 C 237.063 307.312,234.938 307.000,228.250 307.000 C 223.346 307.000,219.033 307.300,218.667 307.667 M334.000 307.500 C 334.000 307.775,334.225 308.000,334.500 308.000 C 334.775 308.000,335.000 307.775,335.000 307.500 C 335.000 307.225,334.775 307.000,334.500 307.000 C 334.225 307.000,334.000 307.225,334.000 307.500 M339.333 309.667 C 339.700 310.033,340.300 310.033,340.667 309.667 C 341.033 309.300,340.733 309.000,340.000 309.000 C 339.267 309.000,338.967 309.300,339.333 309.667 M429.458 316.000 C 429.851 317.375,430.713 324.217,431.374 331.204 C 432.034 338.192,432.867 344.200,433.223 344.556 C 434.665 345.998,435.245 336.978,434.306 327.715 C 433.477 319.533,432.922 317.494,431.026 315.682 L 428.743 313.500 429.458 316.000 M269.342 319.250 C 270.198 325.951,271.737 332.712,271.875 330.375 C 271.944 329.206,272.234 326.731,272.519 324.875 C 272.923 322.251,272.827 321.945,272.089 323.500 C 271.352 325.055,271.125 324.333,271.070 320.250 C 271.029 317.139,270.552 315.000,269.899 315.000 C 269.186 315.000,268.990 316.495,269.342 319.250 M134.203 319.620 C 132.712 322.406,130.829 341.570,131.627 345.828 L 132.273 349.268 127.636 348.573 C 125.086 348.190,123.000 348.089,123.000 348.347 C 123.000 348.605,124.978 350.068,127.396 351.598 C 133.027 355.160,134.936 358.485,136.110 366.770 C 137.348 375.513,139.434 377.888,138.508 369.500 C 138.143 366.200,137.233 361.475,136.487 359.000 C 135.438 355.523,135.296 350.747,135.863 338.000 C 136.267 328.925,136.305 320.617,135.948 319.537 C 135.309 317.607,135.280 317.609,134.203 319.620 M260.130 346.137 C 258.288 348.332,254.467 351.931,251.640 354.136 C 248.607 356.501,245.173 360.472,243.262 363.822 C 240.546 368.585,240.022 370.532,240.012 375.905 C 240.000 382.094,240.136 382.439,244.045 386.157 C 247.501 389.445,254.712 394.000,256.460 394.000 C 256.757 394.000,257.000 393.079,257.000 391.953 C 257.000 390.698,255.802 389.249,253.900 388.203 C 252.195 387.267,249.045 385.260,246.900 383.744 C 243.503 381.343,243.000 380.484,243.000 377.083 C 243.000 371.806,246.568 362.833,250.452 358.339 C 254.709 353.415,256.339 354.436,255.460 361.475 C 255.049 364.767,255.228 367.557,255.935 368.879 C 257.330 371.485,260.375 371.793,259.604 369.250 C 256.647 359.498,256.732 357.859,260.592 350.254 C 262.628 346.243,264.111 342.778,263.887 342.554 C 263.663 342.330,261.973 343.942,260.130 346.137 M334.000 342.378 C 334.000 342.585,334.685 343.324,335.523 344.019 C 336.796 345.076,336.943 345.014,336.416 343.641 C 335.878 342.240,334.000 341.257,334.000 342.378 M436.952 348.838 C 434.845 350.544,434.885 353.000,437.020 353.000 C 438.112 353.000,442.000 348.949,442.000 347.811 C 442.000 346.389,439.298 346.938,436.952 348.838 M305.390 351.198 C 306.236 355.432,308.655 359.000,310.678 359.000 C 312.149 359.000,312.159 358.828,310.778 357.250 C 309.935 356.288,308.650 353.813,307.922 351.750 C 306.306 347.173,304.506 346.781,305.390 351.198 M313.000 354.840 C 313.000 355.394,314.143 357.205,315.540 358.865 C 317.916 361.688,320.938 372.127,320.983 377.661 C 321.000 379.852,315.857 385.000,313.651 385.000 C 311.813 385.000,305.000 390.963,305.000 392.573 C 305.000 394.495,306.353 394.371,310.943 392.029 C 315.948 389.476,320.573 383.801,322.584 377.748 C 323.940 373.666,323.995 372.149,322.949 367.786 C 322.270 364.955,320.766 361.705,319.607 360.563 C 318.448 359.420,317.018 357.616,316.429 356.552 C 315.234 354.397,313.000 353.281,313.000 354.840 M297.079 367.583 C 297.127 368.748,297.364 368.985,297.683 368.188 C 297.972 367.466,297.936 366.603,297.604 366.271 C 297.272 365.939,297.036 366.529,297.079 367.583 M352.079 367.583 C 352.127 368.748,352.364 368.985,352.683 368.188 C 352.972 367.466,352.936 366.603,352.604 366.271 C 352.272 365.939,352.036 366.529,352.079 367.583 M341.500 368.000 C 341.160 368.550,341.359 369.000,341.941 369.000 C 342.523 369.000,343.000 368.550,343.000 368.000 C 343.000 367.450,342.802 367.000,342.559 367.000 C 342.316 367.000,341.840 367.450,341.500 368.000 M373.000 369.500 C 373.000 369.775,373.225 370.000,373.500 370.000 C 373.775 370.000,374.000 369.775,374.000 369.500 C 374.000 369.225,373.775 369.000,373.500 369.000 C 373.225 369.000,373.000 369.225,373.000 369.500 M430.079 372.583 C 430.127 373.748,430.364 373.985,430.683 373.188 C 430.972 372.466,430.936 371.603,430.604 371.271 C 430.272 370.939,430.036 371.529,430.079 372.583 M292.500 374.531 C 289.804 376.741,289.712 376.991,291.595 376.995 C 293.532 377.000,297.000 374.225,297.000 372.671 C 297.000 371.440,295.529 372.048,292.500 374.531 M250.729 376.056 C 248.131 377.621,249.584 379.000,253.831 379.000 C 256.507 379.000,258.594 379.865,261.300 382.096 C 265.756 385.768,269.260 385.538,266.749 381.738 C 263.730 377.170,254.384 373.856,250.729 376.056 M282.000 375.383 C 282.000 375.594,282.900 376.002,284.000 376.290 C 285.100 376.577,286.000 376.405,286.000 375.906 C 286.000 375.408,285.100 375.000,284.000 375.000 C 282.900 375.000,282.000 375.173,282.000 375.383 M305.500 376.930 C 301.819 377.821,298.209 380.013,297.536 381.766 C 296.677 384.006,299.346 384.118,303.471 382.015 C 305.803 380.826,309.385 380.000,312.211 380.000 C 317.423 380.000,318.508 378.524,314.435 376.975 C 311.563 375.883,309.864 375.875,305.500 376.930 M426.064 382.691 C 425.997 387.058,427.551 389.334,428.647 386.477 C 428.996 385.569,428.571 383.403,427.704 381.663 L 426.128 378.500 426.064 382.691 M142.015 384.750 C 142.007 387.637,142.450 390.000,143.000 390.000 C 144.279 390.000,144.279 382.979,143.000 381.000 C 142.306 379.926,142.026 380.992,142.015 384.750 M270.444 385.090 C 269.672 386.340,275.496 392.705,278.195 393.562 C 280.853 394.406,290.349 391.377,292.500 389.000 C 295.310 385.895,293.367 384.948,285.668 385.667 C 280.567 386.143,279.028 386.631,279.419 387.649 C 280.018 389.210,278.424 389.495,277.496 387.993 C 276.299 386.057,271.155 383.940,270.444 385.090 M266.441 395.555 C 264.577 397.049,264.589 397.067,266.750 396.020 C 267.988 395.420,269.000 394.720,269.000 394.465 C 269.000 393.700,268.481 393.921,266.441 395.555 M279.929 419.084 C 275.759 420.184,279.977 421.096,285.000 420.180 L 289.500 419.360 285.929 418.902 C 283.965 418.650,281.265 418.732,279.929 419.084 M269.500 427.000 C 269.160 427.550,269.752 428.000,270.815 428.000 C 271.879 428.000,274.493 428.612,276.624 429.359 C 278.818 430.128,281.368 430.392,282.500 429.966 C 284.715 429.134,284.594 429.066,277.384 427.114 C 272.297 425.737,270.298 425.708,269.500 427.000 M304.000 428.500 C 305.375 429.286,307.625 429.915,309.000 429.898 C 310.774 429.875,310.193 429.454,307.000 428.448 C 301.393 426.682,300.836 426.691,304.000 428.500 M305.500 435.165 C 297.800 435.643,290.652 436.517,289.615 437.109 C 287.290 438.437,273.452 438.374,267.725 437.010 C 265.056 436.374,256.321 436.279,244.012 436.752 C 226.594 437.421,224.488 437.686,224.188 439.250 C 223.878 440.873,225.623 441.017,248.177 441.238 C 283.508 441.585,287.359 441.509,310.500 440.010 C 322.050 439.261,333.653 438.725,336.284 438.818 C 339.849 438.944,341.224 438.581,341.680 437.393 C 342.016 436.516,341.663 435.400,340.896 434.914 C 339.236 433.864,324.856 433.966,305.500 435.165 M232.161 447.561 C 232.559 449.590,236.453 452.549,240.000 453.519 C 242.272 454.141,242.181 453.920,239.000 451.093 C 237.075 449.382,234.672 447.499,233.661 446.908 C 232.147 446.024,231.881 446.140,232.161 447.561 M284.235 448.180 C 283.281 448.554,280.925 448.898,279.000 448.945 C 277.075 448.992,274.883 449.421,274.130 449.899 C 272.374 451.011,280.847 452.012,283.000 450.948 C 285.034 449.942,308.000 449.815,308.000 450.809 C 308.000 452.034,305.743 454.000,304.338 454.000 C 303.643 454.000,300.583 454.932,297.538 456.072 C 290.844 458.576,290.104 460.579,296.250 459.557 C 298.587 459.168,301.776 458.701,303.336 458.519 C 307.633 458.017,310.743 454.606,310.210 450.980 C 309.909 448.928,309.096 447.834,307.635 447.518 C 304.575 446.855,286.299 447.372,284.235 448.180 M266.269 450.693 C 267.242 450.947,268.592 450.930,269.269 450.656 C 269.946 450.382,269.150 450.175,267.500 450.195 C 265.850 450.215,265.296 450.439,266.269 450.693 M259.000 453.171 C 259.000 454.813,262.319 458.142,265.684 459.875 C 268.255 461.199,279.369 461.406,278.571 460.115 C 278.271 459.629,275.887 458.910,273.275 458.519 C 268.319 457.775,263.727 455.834,260.750 453.224 C 259.229 451.891,259.000 451.884,259.000 453.171 M243.573 456.883 C 242.742 458.226,251.724 461.695,258.750 462.745 C 262.188 463.258,265.000 463.562,265.000 463.420 C 265.000 462.445,257.788 459.000,255.746 459.000 C 254.362 459.000,251.940 458.328,250.364 457.506 C 247.135 455.822,244.384 455.570,243.573 456.883 M274.174 468.749 C 260.492 468.970,255.950 469.349,256.248 470.243 C 256.982 472.447,264.372 473.188,280.246 472.651 C 291.390 472.274,296.576 471.710,297.990 470.720 C 300.522 468.946,299.547 467.935,295.583 468.226 C 293.887 468.350,284.253 468.586,274.174 468.749 M179.000 475.853 C 179.000 477.178,194.105 491.790,197.775 494.015 C 199.576 495.107,201.437 497.020,201.911 498.265 C 202.384 499.510,206.199 503.785,210.389 507.764 C 217.343 514.370,220.000 516.179,220.000 514.307 C 220.000 513.282,180.939 475.000,179.893 475.000 C 179.402 475.000,179.000 475.384,179.000 475.853 M381.278 476.250 C 378.880 479.351,378.911 480.287,381.339 478.076 C 382.802 476.742,384.000 475.505,384.000 475.326 C 384.000 474.499,382.145 475.129,381.278 476.250 M289.500 477.096 C 299.708 478.530,301.264 478.550,301.724 477.250 C 302.060 476.302,299.911 476.031,292.833 476.127 L 283.500 476.254 289.500 477.096 M270.333 478.667 C 270.700 479.033,271.300 479.033,271.667 478.667 C 272.033 478.300,271.733 478.000,271.000 478.000 C 270.267 478.000,269.967 478.300,270.333 478.667 M370.846 484.815 C 367.737 486.882,361.056 492.157,356.001 496.536 C 341.531 509.073,338.077 511.669,328.829 516.959 C 310.109 527.668,290.589 530.979,266.987 527.450 C 250.712 525.017,243.674 521.656,224.688 507.250 C 219.433 503.262,214.786 500.000,214.363 500.000 C 213.024 500.000,221.201 507.978,229.500 514.767 C 240.371 523.661,251.453 528.770,264.945 531.108 C 288.011 535.105,306.909 532.835,324.500 523.953 C 336.814 517.737,342.883 513.322,356.742 500.500 C 362.687 495.000,370.015 488.382,373.026 485.794 C 379.621 480.124,378.596 479.663,370.846 484.815 M210.500 497.000 C 210.840 497.550,211.343 498.000,211.618 498.000 C 211.893 498.000,211.840 497.550,211.500 497.000 C 211.160 496.450,210.657 496.000,210.382 496.000 C 210.107 496.000,210.160 496.450,210.500 497.000 M391.035 507.240 C 383.003 524.115,378.929 529.032,344.703 563.160 C 312.265 595.503,294.340 610.950,289.203 610.985 C 284.662 611.015,271.741 603.439,259.221 593.406 C 240.618 578.496,201.480 537.038,192.284 522.500 C 190.544 519.750,187.701 514.462,185.966 510.749 C 182.709 503.781,181.000 502.883,181.000 508.140 C 181.000 516.521,194.149 535.092,215.597 557.000 C 222.865 564.425,230.893 572.975,233.436 576.000 C 238.571 582.108,245.283 588.058,261.181 600.597 C 272.203 609.291,282.921 615.000,288.220 615.000 C 294.387 615.000,304.959 607.712,322.089 591.651 C 343.807 571.290,382.303 531.117,386.832 524.090 C 394.721 511.850,399.385 499.393,396.471 498.349 C 395.905 498.146,393.459 502.147,391.035 507.240 M264.000 502.500 C 264.000 502.775,264.225 503.000,264.500 503.000 C 264.775 503.000,265.000 502.775,265.000 502.500 C 265.000 502.225,264.775 502.000,264.500 502.000 C 264.225 502.000,264.000 502.225,264.000 502.500 M362.145 508.440 C 357.261 513.605,355.230 516.714,358.531 513.974 C 360.488 512.350,368.333 503.000,367.738 503.000 C 367.492 503.000,364.975 505.448,362.145 508.440 M412.468 519.093 C 412.898 522.067,413.307 526.712,413.375 529.417 C 413.450 532.364,414.001 534.500,414.750 534.750 C 415.438 534.979,416.000 535.824,416.000 536.627 C 416.000 537.430,417.125 539.301,418.500 540.783 C 419.875 542.266,421.000 542.948,421.000 542.299 C 421.000 541.649,420.616 540.880,420.146 540.590 C 419.676 540.300,418.998 537.236,418.639 533.781 C 417.920 526.853,414.456 515.400,412.764 514.354 C 412.006 513.886,411.918 515.299,412.468 519.093 M138.197 548.577 C 133.856 553.843,128.307 570.000,130.839 570.000 C 132.245 570.000,135.234 564.874,139.507 555.138 C 143.715 545.547,143.127 542.596,138.197 548.577 M421.822 548.401 C 421.256 553.250,422.050 560.087,423.105 559.435 C 424.270 558.715,424.273 546.287,423.108 545.567 C 422.618 545.264,422.039 546.539,421.822 548.401 M414.429 549.428 C 414.094 550.763,414.296 552.675,414.879 553.678 C 415.747 555.170,415.945 554.731,415.970 551.250 C 416.003 546.514,415.353 545.744,414.429 549.428 M444.000 551.772 C 444.000 554.532,444.865 559.649,445.922 563.145 C 446.979 566.640,449.015 575.125,450.447 582.000 C 457.865 617.624,458.250 619.089,466.334 642.500 C 467.663 646.350,470.873 656.475,473.466 665.000 C 476.060 673.525,479.913 685.225,482.028 691.000 C 487.544 706.054,488.463 709.985,486.826 711.519 C 486.097 712.202,482.350 713.992,478.500 715.497 C 470.207 718.738,435.289 736.036,429.356 739.842 C 427.077 741.304,424.684 743.330,424.039 744.344 C 422.959 746.041,423.131 746.131,426.183 745.472 C 428.007 745.078,431.170 743.911,433.210 742.878 C 435.251 741.845,437.563 741.000,438.349 741.000 C 439.622 741.000,449.192 738.144,469.000 731.853 C 472.575 730.717,478.758 728.282,482.741 726.440 C 489.126 723.488,490.243 722.552,492.203 718.519 L 494.425 713.946 491.054 704.223 C 489.201 698.875,486.235 690.900,484.464 686.500 C 482.694 682.100,479.346 672.425,477.026 665.000 C 474.706 657.575,471.083 646.325,468.976 640.000 C 462.803 621.474,460.256 612.316,457.436 598.500 C 453.039 576.964,452.319 573.860,449.606 564.735 C 448.173 559.914,447.000 554.457,447.000 552.607 C 447.000 550.758,446.325 548.685,445.500 548.000 C 444.201 546.922,444.000 547.426,444.000 551.772 M273.526 549.959 C 273.200 550.486,274.524 554.076,276.468 557.936 C 280.263 565.473,284.222 569.178,286.281 567.119 C 287.185 566.215,286.847 565.425,284.827 563.721 C 283.379 562.499,280.964 558.688,279.461 555.250 C 276.913 549.426,274.941 547.668,273.526 549.959 M118.405 561.155 C 117.962 561.870,118.130 562.038,118.845 561.595 C 119.480 561.203,120.000 560.684,120.000 560.441 C 120.000 559.607,119.117 560.002,118.405 561.155 M423.542 573.250 C 422.503 575.038,420.606 577.491,419.327 578.702 C 418.047 579.913,417.029 581.938,417.063 583.202 C 417.124 585.399,417.163 585.411,417.954 583.460 C 418.408 582.338,420.405 579.795,422.390 577.810 C 424.376 575.824,426.000 573.255,426.000 572.100 C 426.000 569.316,425.765 569.426,423.542 573.250 M116.405 575.155 C 115.962 575.870,116.130 576.038,116.845 575.595 C 117.480 575.203,118.000 574.684,118.000 574.441 C 118.000 573.607,117.117 574.002,116.405 575.155 M63.333 582.667 C 63.700 583.033,64.300 583.033,64.667 582.667 C 65.033 582.300,64.733 582.000,64.000 582.000 C 63.267 582.000,62.967 582.300,63.333 582.667 M126.578 584.187 C 126.354 584.909,125.926 587.246,125.627 589.380 C 125.328 591.514,123.715 596.098,122.042 599.567 C 120.369 603.036,119.000 606.156,119.000 606.501 C 119.000 606.846,117.875 609.588,116.500 612.594 C 115.125 615.600,114.000 618.637,114.000 619.342 C 114.000 623.294,99.514 660.716,88.979 683.982 C 83.444 696.204,82.822 698.966,85.070 701.324 C 86.026 702.327,91.914 706.195,98.154 709.919 C 104.394 713.644,109.371 717.098,109.214 717.595 C 108.743 719.083,101.889 717.963,95.780 715.400 C 92.634 714.080,89.435 713.000,88.670 713.000 C 87.905 713.000,85.654 711.897,83.668 710.549 C 81.374 708.992,79.819 708.483,79.405 709.153 C 77.110 712.866,95.324 720.201,107.464 720.453 C 115.305 720.616,121.472 722.880,127.725 727.891 C 131.071 730.573,133.982 731.617,146.633 734.673 C 148.940 735.231,150.285 734.025,149.184 732.386 C 148.419 731.247,138.666 725.958,113.500 713.035 C 90.303 701.124,89.000 700.292,89.000 697.392 C 89.000 695.128,91.050 689.902,101.510 665.500 C 107.650 651.177,113.783 634.907,116.966 624.500 C 118.480 619.550,121.807 609.794,124.360 602.820 C 126.912 595.846,129.000 588.785,129.000 587.129 C 129.000 583.989,127.286 581.906,126.578 584.187 M110.158 598.000 C 110.158 599.375,110.385 599.938,110.662 599.250 C 110.940 598.563,110.940 597.438,110.662 596.750 C 110.385 596.063,110.158 596.625,110.158 598.000 M141.000 607.500 C 141.000 607.775,141.225 608.000,141.500 608.000 C 141.775 608.000,142.000 607.775,142.000 607.500 C 142.000 607.225,141.775 607.000,141.500 607.000 C 141.225 607.000,141.000 607.225,141.000 607.500 M269.723 619.077 C 261.987 625.454,251.769 644.210,251.769 652.034 C 251.769 658.942,255.487 669.054,261.061 677.305 C 267.206 686.400,268.563 693.735,265.129 699.292 C 263.958 701.186,263.000 703.482,263.000 704.393 C 263.000 705.304,261.400 709.227,259.444 713.110 C 254.619 722.693,247.282 739.969,244.389 748.562 C 241.633 756.749,237.660 774.993,238.459 775.792 C 238.758 776.091,240.150 775.722,241.552 774.972 C 244.239 773.534,243.567 773.475,269.000 777.406 C 274.225 778.214,283.225 779.175,289.000 779.542 C 294.775 779.909,301.956 780.896,304.958 781.736 C 308.915 782.843,312.669 783.090,318.602 782.634 C 325.319 782.118,326.890 782.271,327.357 783.487 C 328.117 785.469,325.670 786.595,318.977 787.345 C 312.254 788.099,306.032 786.601,305.921 784.203 C 305.875 783.199,305.425 783.643,304.827 785.284 C 304.073 787.350,304.149 788.475,305.122 789.647 C 306.213 790.961,308.371 791.165,317.966 790.863 L 329.500 790.500 330.418 795.250 C 331.137 798.975,331.755 800.000,333.281 800.000 C 335.031 800.000,335.159 799.521,334.551 795.250 C 333.977 791.218,329.400 778.154,324.511 766.595 C 323.095 763.247,321.424 758.877,317.976 749.500 C 316.763 746.200,314.910 741.568,313.860 739.207 C 310.534 731.733,309.188 727.629,308.545 723.000 C 307.206 713.365,302.845 700.793,299.435 696.741 C 296.751 693.550,296.791 690.836,299.685 680.000 C 301.032 674.955,302.140 673.549,313.080 663.000 C 319.657 656.659,325.005 650.693,325.004 649.700 C 324.994 644.956,309.355 622.525,302.805 617.861 L 299.781 615.708 295.364 617.854 C 289.834 620.540,283.581 620.595,278.739 618.000 C 276.686 616.900,274.658 616.000,274.231 616.000 C 273.805 616.000,271.776 617.385,269.723 619.077 M415.000 619.500 C 415.000 619.775,415.225 620.000,415.500 620.000 C 415.775 620.000,416.000 619.775,416.000 619.500 C 416.000 619.225,415.775 619.000,415.500 619.000 C 415.225 619.000,415.000 619.225,415.000 619.500 M277.962 621.956 C 279.223 622.753,279.243 623.752,278.111 629.190 C 275.345 642.475,274.031 653.949,273.894 666.000 C 273.816 672.875,273.470 681.650,273.126 685.500 L 272.500 692.500 271.113 687.500 C 269.025 679.974,269.665 644.553,272.035 636.500 C 273.602 631.174,273.960 624.847,272.671 625.270 C 269.512 626.304,267.048 642.460,267.018 662.333 C 266.997 675.957,266.177 676.777,261.666 667.682 C 258.036 660.364,256.201 648.980,258.038 645.184 C 259.267 642.645,259.398 642.943,260.454 650.702 C 261.068 655.213,261.832 659.165,262.152 659.485 C 262.471 659.804,262.965 654.313,263.248 647.283 C 263.901 631.130,265.827 626.411,273.500 622.167 C 275.951 620.811,276.139 620.802,277.962 621.956 M302.546 623.017 C 304.788 623.870,305.130 624.478,304.658 626.767 C 304.347 628.270,303.174 634.396,302.050 640.380 C 300.926 646.365,299.580 652.890,299.057 654.880 C 298.535 656.871,297.831 661.425,297.493 665.000 C 296.954 670.693,296.367 674.279,294.424 683.750 C 294.170 684.987,293.464 686.000,292.855 686.000 C 291.651 686.000,292.392 667.181,293.945 658.290 C 299.228 628.047,299.603 623.997,296.867 626.733 C 293.436 630.164,287.769 676.683,289.516 687.079 C 290.180 691.027,288.245 693.692,285.483 692.632 C 284.164 692.126,284.028 690.271,284.540 679.770 C 285.376 662.613,287.817 640.465,289.545 634.346 C 290.345 631.511,291.000 628.114,291.000 626.796 C 291.000 625.478,291.540 623.860,292.200 623.200 C 293.667 621.733,298.924 621.640,302.546 623.017 M483.494 625.006 C 482.496 626.110,481.915 627.249,482.204 627.537 C 482.493 627.826,483.475 626.923,484.388 625.531 C 486.381 622.490,485.983 622.256,483.494 625.006 M286.718 627.750 C 286.448 629.813,285.052 639.150,283.617 648.500 C 281.729 660.800,281.006 669.421,281.004 679.683 C 281.000 692.865,281.137 693.909,282.949 694.484 C 285.411 695.265,286.426 698.335,285.064 700.880 C 284.488 701.956,284.310 704.299,284.667 706.086 C 285.178 708.638,285.015 709.223,283.909 708.809 C 283.134 708.520,280.700 707.706,278.500 707.002 C 270.373 704.399,269.000 703.726,269.000 702.343 C 269.000 700.635,271.854 696.066,274.211 694.000 C 275.666 692.725,276.011 689.729,276.514 674.000 C 277.388 646.670,281.499 624.000,285.580 624.000 C 286.884 624.000,287.112 624.749,286.718 627.750 M310.959 632.417 C 311.620 634.204,310.444 640.489,306.921 654.000 C 304.552 663.087,301.065 669.398,299.358 667.691 C 299.031 667.365,299.491 664.938,300.379 662.299 C 302.622 655.632,307.000 634.943,307.000 631.007 C 307.000 628.130,307.186 627.909,308.612 629.093 C 309.498 629.829,310.554 631.324,310.959 632.417 M315.800 639.200 C 316.460 639.860,317.000 642.492,317.000 645.050 C 317.000 648.606,316.310 650.652,314.066 653.750 C 308.342 661.652,306.716 660.675,310.376 651.533 C 311.819 647.928,313.000 643.409,313.000 641.489 C 313.000 637.835,313.790 637.190,315.800 639.200 M156.500 642.000 C 156.840 642.550,157.343 643.000,157.618 643.000 C 157.893 643.000,157.840 642.550,157.500 642.000 C 157.160 641.450,156.657 641.000,156.382 641.000 C 156.107 641.000,156.160 641.450,156.500 642.000 M405.100 651.691 C 405.045 653.446,405.450 655.160,406.000 655.500 C 407.150 656.211,407.150 654.591,406.000 651.000 C 405.235 648.613,405.195 648.644,405.100 651.691 M327.162 658.117 C 327.323 660.853,328.339 663.410,330.189 665.737 C 334.018 670.556,334.903 674.447,335.596 689.500 C 335.968 697.587,337.122 706.657,338.650 713.500 C 340.461 721.607,341.245 728.707,341.633 740.500 C 342.242 759.035,342.649 761.086,344.622 755.556 C 346.491 750.319,346.465 741.690,344.544 729.500 C 341.824 712.242,340.025 696.947,339.187 683.957 C 338.343 670.853,337.112 666.824,331.184 657.750 C 328.016 652.901,326.860 653.007,327.162 658.117 M381.000 655.667 C 380.999 656.125,383.228 661.675,385.953 668.000 C 388.677 674.325,393.878 687.375,397.511 697.000 C 404.186 714.686,416.000 739.925,418.623 742.102 C 421.970 744.880,420.896 741.228,414.703 728.768 C 408.264 715.815,403.013 703.671,396.859 687.500 C 391.942 674.579,387.110 662.753,385.240 659.067 C 383.621 655.873,381.000 653.772,381.000 655.667 M245.232 664.336 C 243.984 667.545,242.093 673.420,241.030 677.390 C 239.966 681.359,237.240 689.533,234.972 695.554 C 228.185 713.571,227.649 715.474,228.469 718.606 L 229.227 721.500 230.251 719.000 C 230.814 717.625,232.847 713.125,234.768 709.000 C 237.107 703.978,238.203 700.233,238.085 697.665 C 237.970 695.166,238.752 692.381,240.332 689.665 C 244.018 683.330,248.155 668.663,247.802 663.185 L 247.500 658.500 245.232 664.336 M404.835 660.523 C 404.209 662.918,405.379 666.813,406.285 665.348 C 406.631 664.787,406.565 663.021,406.138 661.422 C 405.470 658.927,405.286 658.800,404.835 660.523 M404.714 671.016 C 405.277 673.169,407.000 674.771,407.000 673.141 C 407.000 671.435,405.816 669.000,404.987 669.000 C 404.547 669.000,404.424 669.907,404.714 671.016 M399.000 678.500 C 399.000 678.775,399.225 679.000,399.500 679.000 C 399.775 679.000,400.000 678.775,400.000 678.500 C 400.000 678.225,399.775 678.000,399.500 678.000 C 399.225 678.000,399.000 678.225,399.000 678.500 M4.195 681.500 C 4.215 683.150,4.439 683.704,4.693 682.731 C 4.947 681.758,4.930 680.408,4.656 679.731 C 4.382 679.054,4.175 679.850,4.195 681.500 M258.683 685.650 C 258.308 686.026,258.000 688.546,258.000 691.250 C 258.000 697.498,260.356 697.319,260.814 691.036 C 261.118 686.865,260.084 684.250,258.683 685.650 M293.989 698.021 C 293.404 699.114,293.165 703.980,293.425 709.485 C 293.744 716.230,293.435 720.539,292.379 724.096 C 290.178 731.507,290.063 746.305,292.187 748.662 C 293.099 749.673,294.156 751.749,294.537 753.276 C 295.262 756.182,298.333 758.530,300.034 757.479 C 300.581 757.141,304.595 757.176,308.954 757.556 C 314.656 758.054,317.045 758.674,317.464 759.767 C 318.337 762.041,317.398 762.452,311.877 762.212 C 307.564 762.024,306.899 762.242,307.186 763.747 C 307.449 765.131,308.727 765.563,313.251 765.800 C 317.650 766.030,319.218 766.538,319.994 767.988 C 320.897 769.676,320.528 769.948,316.534 770.547 C 314.075 770.916,310.737 770.755,309.117 770.190 C 305.617 768.971,305.000 769.414,305.000 773.148 C 305.000 775.323,304.427 776.106,302.474 776.596 C 297.366 777.878,265.441 773.833,246.250 769.473 C 244.804 769.145,244.000 768.221,244.000 766.887 C 244.000 764.963,244.381 764.863,249.250 765.504 C 252.137 765.884,257.650 766.848,261.500 767.646 C 270.726 769.559,291.030 771.955,298.219 771.980 C 302.697 771.996,303.821 771.698,303.404 770.609 C 303.052 769.694,300.584 769.039,296.185 768.694 C 284.216 767.756,250.460 762.294,247.750 760.857 C 246.787 760.347,246.000 759.137,246.000 758.168 C 246.000 756.508,246.787 756.533,259.750 758.606 C 267.313 759.815,277.325 761.515,282.000 762.384 C 292.372 764.311,300.614 764.465,301.601 762.750 C 301.997 762.063,301.977 761.809,301.558 762.186 C 301.138 762.564,299.603 762.415,298.147 761.856 C 296.691 761.297,291.900 760.224,287.500 759.471 C 268.590 756.235,251.081 752.968,249.599 752.400 C 247.446 751.573,247.570 749.346,249.801 748.762 C 250.792 748.503,256.080 749.133,261.551 750.163 C 279.189 753.481,282.412 754.029,287.500 754.580 L 292.500 755.121 290.285 753.178 C 289.066 752.110,286.366 750.938,284.285 750.575 C 276.221 749.168,254.412 744.891,252.750 744.391 C 251.787 744.102,251.000 743.221,251.000 742.433 C 251.000 739.902,255.950 740.169,272.418 743.589 C 280.610 745.291,284.658 745.742,285.368 745.032 C 286.933 743.467,285.128 742.278,279.500 741.164 C 276.750 740.620,270.675 739.413,266.000 738.482 C 261.325 737.551,256.660 736.343,255.633 735.797 C 253.990 734.924,253.943 734.629,255.238 733.333 C 256.473 732.098,257.739 732.043,263.105 732.991 C 266.622 733.613,271.585 734.769,274.134 735.561 C 279.513 737.231,287.000 737.469,287.000 735.969 C 287.000 734.731,287.436 734.870,272.659 731.382 C 259.707 728.325,257.524 727.314,258.959 725.038 C 259.752 723.779,260.759 723.756,266.190 724.877 C 269.661 725.593,275.066 727.066,278.202 728.150 C 282.877 729.767,284.309 729.905,286.158 728.915 C 288.254 727.794,287.921 727.550,281.457 725.474 C 277.631 724.245,271.913 722.498,268.750 721.592 C 263.037 719.955,261.174 717.638,264.535 716.348 C 266.401 715.632,274.148 717.643,279.210 720.157 C 283.281 722.179,286.555 722.529,287.475 721.040 C 287.957 720.260,280.449 716.000,278.592 716.000 C 278.308 716.000,275.583 715.068,272.538 713.928 C 269.082 712.635,267.000 711.271,267.000 710.301 C 267.000 708.062,275.543 709.038,281.044 711.906 C 286.617 714.811,287.908 713.598,288.353 705.040 C 288.622 699.872,289.111 698.329,290.947 696.842 C 293.657 694.648,295.427 695.333,293.989 698.021 M477.338 696.437 C 477.641 697.228,478.381 699.703,478.983 701.937 C 479.585 704.172,480.478 706.000,480.969 706.000 C 481.474 706.000,481.504 704.809,481.037 703.250 C 479.624 698.529,478.076 695.000,477.418 695.000 C 477.070 695.000,477.034 695.647,477.338 696.437 M274.500 699.000 C 273.447 700.704,274.985 702.000,278.059 702.000 C 281.424 702.000,281.749 701.289,279.250 699.392 C 277.143 697.793,275.338 697.644,274.500 699.000 M299.581 703.818 C 301.163 707.575,301.928 710.761,304.421 724.000 C 305.199 728.125,306.918 734.475,308.242 738.111 C 310.262 743.655,310.396 744.663,309.075 744.361 C 308.209 744.162,305.700 744.864,303.500 745.919 C 299.585 747.797,299.561 747.840,302.384 747.919 C 306.172 748.025,313.317 750.135,314.184 751.404 C 315.523 753.363,313.868 753.867,306.741 753.673 L 299.519 753.477 297.353 748.916 C 294.655 743.232,294.133 738.749,295.921 736.595 C 297.024 735.267,297.057 734.421,296.092 732.302 C 295.012 729.933,295.155 729.450,297.489 727.582 C 300.074 725.512,300.082 725.457,298.987 718.000 C 298.382 713.875,297.462 708.581,296.943 706.236 C 295.136 698.066,296.595 696.729,299.581 703.818 M105.500 702.000 C 105.840 702.550,106.343 703.000,106.618 703.000 C 106.893 703.000,106.840 702.550,106.500 702.000 C 106.160 701.450,105.657 701.000,105.382 701.000 C 105.107 701.000,105.160 701.450,105.500 702.000 M244.035 713.250 C 244.058 719.791,244.547 724.359,245.387 725.873 L 246.702 728.246 247.337 725.873 C 248.481 721.602,248.081 705.481,246.800 704.200 C 244.414 701.814,244.001 703.169,244.035 713.250 M39.012 705.306 C 35.194 706.613,32.018 711.418,33.797 713.197 C 34.465 713.865,35.017 713.200,35.456 711.200 C 35.976 708.831,37.097 707.780,40.807 706.182 C 45.906 703.987,44.654 703.376,39.012 705.306 M46.333 705.667 C 46.700 706.033,47.300 706.033,47.667 705.667 C 48.033 705.300,47.733 705.000,47.000 705.000 C 46.267 705.000,45.967 705.300,46.333 705.667 M547.000 707.500 C 547.000 707.775,547.225 708.000,547.500 708.000 C 547.775 708.000,548.000 707.775,548.000 707.500 C 548.000 707.225,547.775 707.000,547.500 707.000 C 547.225 707.000,547.000 707.225,547.000 707.500 M536.000 709.171 C 536.000 710.006,536.900 711.505,538.000 712.500 C 543.219 717.223,538.319 736.948,520.985 781.000 C 514.338 797.893,513.873 800.000,516.793 800.000 C 518.003 800.000,518.945 798.780,519.687 796.250 C 521.323 790.679,527.269 774.850,531.990 763.500 C 546.107 729.564,547.664 723.095,543.177 717.025 C 541.979 715.406,541.000 713.691,541.000 713.215 C 541.000 712.738,539.875 711.292,538.500 710.000 C 536.628 708.241,536.000 708.033,536.000 709.171 M549.000 708.500 C 549.000 708.775,549.225 709.000,549.500 709.000 C 549.775 709.000,550.000 708.775,550.000 708.500 C 550.000 708.225,549.775 708.000,549.500 708.000 C 549.225 708.000,549.000 708.225,549.000 708.500 M56.000 709.446 C 56.000 710.088,75.907 719.973,81.425 722.070 C 91.588 725.933,91.641 724.055,81.500 719.428 C 71.030 714.651,56.000 708.768,56.000 709.446 M71.459 711.067 C 71.096 711.653,71.014 712.348,71.276 712.610 C 71.538 712.872,72.019 712.392,72.345 711.543 C 73.021 709.781,72.445 709.471,71.459 711.067 M122.333 710.667 C 122.700 711.033,123.300 711.033,123.667 710.667 C 124.033 710.300,123.733 710.000,123.000 710.000 C 122.267 710.000,121.967 710.300,122.333 710.667 M502.323 716.696 C 499.594 717.227,496.997 720.000,499.228 720.000 C 501.926 720.000,507.006 717.818,506.440 716.903 C 506.133 716.406,505.571 716.061,505.191 716.136 C 504.811 716.211,503.520 716.463,502.323 716.696 M486.504 718.996 C 483.497 722.319,465.326 730.023,460.593 729.982 C 457.857 729.958,466.803 724.917,477.500 720.455 C 487.056 716.469,489.089 716.139,486.504 718.996 M28.275 719.703 C 27.140 720.691,25.930 722.850,25.587 724.500 L 24.963 727.500 26.713 724.750 C 29.617 720.187,31.689 721.173,33.022 727.750 C 33.662 730.913,35.271 736.200,36.596 739.500 C 37.921 742.800,39.004 746.016,39.003 746.646 C 39.001 747.277,40.379 751.102,42.065 755.146 C 45.467 763.309,46.651 766.446,53.712 786.000 C 57.892 797.576,58.915 799.547,60.887 799.832 C 63.697 800.237,63.809 800.709,56.411 781.000 C 42.572 744.134,43.499 746.712,39.508 734.000 C 34.878 719.250,34.547 718.518,32.382 718.203 C 31.258 718.039,29.410 718.714,28.275 719.703 M530.204 720.045 C 529.431 721.283,529.365 722.000,530.023 722.000 C 530.595 722.000,531.329 721.306,531.655 720.457 C 532.555 718.111,531.583 717.836,530.204 720.045 M527.168 725.949 C 526.583 727.627,526.317 729.000,526.577 729.000 C 527.252 729.000,529.139 723.805,528.644 723.310 C 528.417 723.083,527.753 724.271,527.168 725.949 M399.731 726.920 C 399.296 728.583,399.426 728.974,400.168 728.232 C 400.750 727.650,401.028 726.585,400.788 725.863 C 400.538 725.114,400.085 725.568,399.731 726.920 M299.459 731.067 C 298.470 732.666,299.577 733.269,302.057 732.482 C 303.782 731.934,303.962 731.590,302.882 730.906 C 301.049 729.745,300.252 729.783,299.459 731.067 M425.000 730.500 C 425.000 730.775,425.225 731.000,425.500 731.000 C 425.775 731.000,426.000 730.775,426.000 730.500 C 426.000 730.225,425.775 730.000,425.500 730.000 C 425.225 730.000,425.000 730.225,425.000 730.500 M502.000 734.015 C 500.075 735.078,495.350 736.883,491.500 738.028 C 482.905 740.584,468.769 746.103,469.345 746.678 C 469.577 746.910,473.307 746.000,477.633 744.655 C 481.960 743.310,487.975 741.659,491.000 740.986 C 497.006 739.649,510.370 731.812,506.250 732.042 C 505.837 732.065,503.925 732.953,502.000 734.015 M200.000 735.500 C 200.000 736.325,200.450 737.000,201.000 737.000 C 201.550 737.000,202.000 736.325,202.000 735.500 C 202.000 734.675,201.550 734.000,201.000 734.000 C 200.450 734.000,200.000 734.675,200.000 735.500 M524.000 734.500 C 524.000 734.775,524.225 735.000,524.500 735.000 C 524.775 735.000,525.000 734.775,525.000 734.500 C 525.000 734.225,524.775 734.000,524.500 734.000 C 524.225 734.000,524.000 734.225,524.000 734.500 M573.195 737.500 C 573.215 739.150,573.439 739.704,573.693 738.731 C 573.947 737.758,573.930 736.408,573.656 735.731 C 573.382 735.054,573.175 735.850,573.195 737.500 M296.371 739.749 C 296.462 741.326,297.098 741.969,298.500 741.900 C 302.281 741.713,305.317 740.451,305.533 738.977 C 305.698 737.851,304.619 737.500,300.996 737.500 C 296.696 737.500,296.255 737.714,296.371 739.749 M136.750 739.080 C 134.307 740.503,134.567 742.006,137.250 741.968 C 139.465 741.937,143.000 739.891,143.000 738.640 C 143.000 737.643,138.697 737.946,136.750 739.080 M190.158 744.000 C 190.158 745.375,190.385 745.938,190.662 745.250 C 190.940 744.563,190.940 743.438,190.662 742.750 C 190.385 742.063,190.158 742.625,190.158 744.000 M582.583 743.866 C 582.152 744.563,582.070 745.403,582.400 745.733 C 583.295 746.628,584.271 745.312,583.787 743.862 C 583.449 742.846,583.213 742.846,582.583 743.866 M97.158 746.000 C 97.158 747.375,97.385 747.938,97.662 747.250 C 97.940 746.563,97.940 745.438,97.662 744.750 C 97.385 744.063,97.158 744.625,97.158 746.000 M4.070 751.309 C 4.027 754.276,4.383 755.881,5.000 755.500 C 6.194 754.762,6.194 751.279,5.000 748.500 C 4.355 747.000,4.123 747.702,4.070 751.309 M415.371 748.804 C 413.595 749.958,412.091 753.530,412.859 754.772 C 413.317 755.512,414.262 754.670,415.450 752.463 C 417.348 748.939,417.317 747.540,415.371 748.804 M459.000 751.000 C 458.099 751.582,457.975 751.975,458.691 751.985 C 459.346 751.993,460.160 751.550,460.500 751.000 C 461.267 749.758,460.921 749.758,459.000 751.000 M193.000 753.876 C 193.000 754.825,196.339 758.000,197.337 758.000 C 197.711 758.000,197.460 757.109,196.780 756.019 C 195.465 753.913,193.000 752.516,193.000 753.876 M378.000 753.930 C 378.000 754.868,381.119 757.000,382.493 757.000 C 383.597 757.000,381.951 755.044,379.944 753.970 C 378.675 753.291,378.000 753.277,378.000 753.930 M424.000 753.500 C 424.000 753.775,424.225 754.000,424.500 754.000 C 424.775 754.000,425.000 753.775,425.000 753.500 C 425.000 753.225,424.775 753.000,424.500 753.000 C 424.225 753.000,424.000 753.225,424.000 753.500 M453.000 753.500 C 453.000 753.775,453.225 754.000,453.500 754.000 C 453.775 754.000,454.000 753.775,454.000 753.500 C 454.000 753.225,453.775 753.000,453.500 753.000 C 453.225 753.000,453.000 753.225,453.000 753.500 M490.000 760.500 C 490.000 760.775,490.225 761.000,490.500 761.000 C 490.775 761.000,491.000 760.775,491.000 760.500 C 491.000 760.225,490.775 760.000,490.500 760.000 C 490.225 760.000,490.000 760.225,490.000 760.500 M512.627 763.261 C 511.793 766.374,511.857 767.207,512.879 766.575 C 514.130 765.802,514.965 762.096,514.020 761.512 C 513.584 761.243,512.957 762.030,512.627 763.261 M127.500 768.000 C 127.840 768.550,128.343 769.000,128.618 769.000 C 128.893 769.000,128.840 768.550,128.500 768.000 C 128.160 767.450,127.657 767.000,127.382 767.000 C 127.107 767.000,127.160 767.450,127.500 768.000 M399.000 767.500 C 399.000 767.775,399.225 768.000,399.500 768.000 C 399.775 768.000,400.000 767.775,400.000 767.500 C 400.000 767.225,399.775 767.000,399.500 767.000 C 399.225 767.000,399.000 767.225,399.000 767.500 M324.071 776.170 C 325.316 778.385,321.518 779.236,312.107 778.852 C 306.680 778.630,305.345 778.289,306.144 777.327 C 306.709 776.645,306.953 775.730,306.685 775.294 C 306.417 774.857,310.008 774.500,314.665 774.500 C 321.532 774.500,323.310 774.816,324.071 776.170 M243.187 780.444 C 244.915 781.956,247.768 783.038,251.187 783.477 C 254.109 783.852,258.075 784.546,260.000 785.017 C 261.925 785.489,269.350 786.360,276.500 786.954 C 283.650 787.547,292.538 788.315,296.250 788.660 C 302.029 789.197,303.000 789.057,303.000 787.689 C 303.000 785.783,301.026 785.395,284.000 783.955 C 277.125 783.373,266.325 782.056,260.000 781.028 C 253.675 780.000,246.700 778.919,244.500 778.626 L 240.500 778.092 243.187 780.444 M245.000 789.294 C 245.000 790.942,265.277 794.997,273.569 795.008 C 276.831 795.012,282.200 795.431,285.500 795.939 C 293.300 797.140,302.500 797.662,302.500 796.904 C 302.500 796.576,303.088 795.599,303.807 794.732 C 304.933 793.376,304.839 793.229,303.134 793.675 C 302.045 793.960,296.281 793.666,290.327 793.021 C 284.372 792.376,276.800 791.641,273.500 791.386 C 270.200 791.131,264.189 790.265,260.143 789.461 C 250.873 787.620,245.000 787.555,245.000 789.294 M506.229 791.187 C 506.727 792.682,509.000 793.505,509.000 792.190 C 509.000 791.653,508.287 790.941,507.416 790.606 C 506.443 790.233,505.985 790.456,506.229 791.187 M76.750 795.072 C 77.987 796.478,79.000 798.162,79.000 798.814 C 79.000 799.467,79.466 800.000,80.035 800.000 C 81.502 800.000,79.723 796.932,76.843 794.496 L 74.500 792.514 76.750 795.072 M476.000 794.000 C 474.707 794.835,474.734 794.971,476.191 794.985 C 477.121 794.993,478.160 794.550,478.500 794.000 C 479.282 792.734,477.958 792.734,476.000 794.000 M305.721 795.643 C 305.422 796.127,305.700 797.192,306.339 798.011 C 307.862 799.964,318.000 800.254,318.000 798.344 C 318.000 797.353,318.542 797.290,320.278 798.081 C 322.876 799.264,328.000 797.816,328.000 795.898 C 328.000 795.092,326.421 794.941,322.750 795.395 C 315.638 796.276,316.083 796.273,310.882 795.474 C 308.342 795.084,306.019 795.160,305.721 795.643 M217.500 797.000 C 217.840 797.550,218.343 798.000,218.618 798.000 C 218.893 798.000,218.840 797.550,218.500 797.000 C 218.160 796.450,217.657 796.000,217.382 796.000 C 217.107 796.000,217.160 796.450,217.500 797.000 M249.550 797.897 C 250.072 798.390,252.525 799.086,255.000 799.443 C 259.180 800.045,259.362 799.981,257.559 798.546 C 255.520 796.922,247.861 796.302,249.550 797.897 M482.000 798.500 C 482.000 799.325,482.450 800.000,483.000 800.000 C 483.550 800.000,484.000 799.325,484.000 798.500 C 484.000 797.675,483.550 797.000,483.000 797.000 C 482.450 797.000,482.000 797.675,482.000 798.500 " stroke="none" fill="#333333" fill-rule="evenodd"/></svg>